<svg xmlns="http://www.w3.org/2000/svg" viewBox="0 0 750 500"><g id="freepik--background-complete--inject-5"><path d="M494.67,131.45c8.71,0,155.39,1,164.61.67.66,0,1-1,.36-1.32-5.81-2.87-12.4-2.3-18.44-4.33-3.56-1.2-5.74-3.52-8.2-6.19a17,17,0,0,0-7.64-5,16.15,16.15,0,0,0-8.31-.26c-3,.71-5.56,2.41-8.39,3.49-7,2.66-13.9.13-18.93-5.08-4.15-4.3-8.23-8.36-13.87-10.67-4.72-1.94-10-2.34-14.69-.2-5.38,2.43-9.07,7.34-14.13,10.28-6,3.51-13.15,2.68-19.77,3.73s-11.7,6.63-17.5,9.84a12.33,12.33,0,0,1-6.32,2,38.94,38.94,0,0,1-3.86-.54c-2-.25-3.89-.19-5.24,1.47C494,129.73,494.09,131.45,494.67,131.45Z" style="fill:#ebebeb"></path><path d="M96.33,134.28c6.36,0,113.45.71,120.18.49.48,0,.74-.72.26-1-4.24-2.1-9.05-1.68-13.46-3.16-2.6-.88-4.19-2.57-6-4.52a12.46,12.46,0,0,0-5.57-3.64,11.79,11.79,0,0,0-6.07-.19c-2.17.52-4.06,1.76-6.13,2.55-5.15,1.94-10.14.09-13.82-3.71-3-3.14-6-6.1-10.12-7.79a13.44,13.44,0,0,0-10.73-.15c-3.93,1.78-6.62,5.36-10.31,7.51-4.38,2.56-9.61,2-14.44,2.73s-8.54,4.84-12.78,7.18a9,9,0,0,1-4.61,1.43c-.95,0-1.88-.28-2.82-.4-1.45-.18-2.84-.14-3.82,1.08C95.86,133,95.91,134.28,96.33,134.28Z" style="fill:#ebebeb"></path><path d="M400.14,165.51c6.36,0,113.45.7,120.18.49.49,0,.74-.73.26-1-4.24-2.1-9.05-1.67-13.46-3.16-2.59-.87-4.19-2.57-6-4.52a12.36,12.36,0,0,0-5.57-3.63,11.69,11.69,0,0,0-6.07-.19c-2.17.51-4.06,1.76-6.13,2.54-5.14,1.94-10.14.1-13.82-3.71-3-3.13-6-6.1-10.12-7.79a13.44,13.44,0,0,0-10.73-.14c-3.93,1.78-6.62,5.35-10.31,7.51-4.38,2.55-9.61,1.95-14.44,2.72s-8.54,4.84-12.77,7.18a9.09,9.09,0,0,1-4.62,1.43c-.95,0-1.88-.28-2.81-.39-1.46-.18-2.85-.14-3.83,1.07C399.67,164.25,399.72,165.51,400.14,165.51Z" style="fill:#ebebeb"></path><path d="M336.58,242.58c6.37,0,113.46.7,120.19.49.48,0,.74-.73.26-1-4.24-2.1-9.06-1.68-13.46-3.16-2.6-.88-4.19-2.57-6-4.52a12.51,12.51,0,0,0-5.57-3.64,11.9,11.9,0,0,0-6.07-.19c-2.17.52-4.06,1.77-6.13,2.55-5.15,1.94-10.15.1-13.82-3.71-3-3.14-6-6.1-10.13-7.79a13.46,13.46,0,0,0-10.72-.15c-3.93,1.78-6.63,5.36-10.32,7.52-4.37,2.55-9.6,2-14.43,2.72s-8.54,4.84-12.78,7.18a9.06,9.06,0,0,1-4.62,1.43,27.14,27.14,0,0,1-2.81-.4c-1.46-.18-2.84-.13-3.82,1.08C336.12,241.32,336.17,242.58,336.58,242.58Z" style="fill:#ebebeb"></path><path d="M185.73,107.64c.12.35,168.79,0,166.66,0-1,0,1.47-1.46.52-1.92-5.49-2.73-11.5-2.8-17.48-3.36-3.48-.31-7.07-.82-10.21-2.47s-5.16-4.56-7.41-7.23A31.71,31.71,0,0,0,289,81.75c-12,1.88-21.45,11-33.46,12.7-7.22,1-14.05-1.79-21.1-2.77-5.8-.81-10.64.32-15.84,2.9-3.8,1.88-7.32,3.47-11.62,3.77-3.3.23-6.62-.15-9.92-.18A22.2,22.2,0,0,0,182.46,104C181.92,104.48,180.22,107.64,185.73,107.64Z" style="fill:#ebebeb"></path><rect x="585.73" y="99.29" width="65.27" height="342.14" style="fill:#dbdbdb"></rect><rect x="595.86" y="110.41" width="12.69" height="13.06" style="fill:#ebebeb"></rect><rect x="612.09" y="110.41" width="12.69" height="13.06" style="fill:#ebebeb"></rect><rect x="595.86" y="132.59" width="12.69" height="13.06" style="fill:#ebebeb"></rect><rect x="612.09" y="132.59" width="12.69" height="13.06" style="fill:#ebebeb"></rect><rect x="595.86" y="154.77" width="12.69" height="13.06" style="fill:#ebebeb"></rect><rect x="612.09" y="154.77" width="12.69" height="13.06" style="fill:#ebebeb"></rect><rect x="595.86" y="176.95" width="12.69" height="13.06" style="fill:#ebebeb"></rect><rect x="612.09" y="176.95" width="12.69" height="13.06" style="fill:#ebebeb"></rect><rect x="595.86" y="199.13" width="12.69" height="13.06" style="fill:#ebebeb"></rect><rect x="612.09" y="199.13" width="12.69" height="13.06" style="fill:#ebebeb"></rect><rect x="595.86" y="221.31" width="12.69" height="13.06" style="fill:#ebebeb"></rect><rect x="612.09" y="221.31" width="12.69" height="13.06" style="fill:#ebebeb"></rect><rect x="595.86" y="243.49" width="12.69" height="13.06" style="fill:#ebebeb"></rect><rect x="612.09" y="243.49" width="12.69" height="13.06" style="fill:#ebebeb"></rect><rect x="595.86" y="265.67" width="12.69" height="13.06" style="fill:#ebebeb"></rect><rect x="612.09" y="265.67" width="12.69" height="13.06" style="fill:#ebebeb"></rect><rect x="595.86" y="287.85" width="12.69" height="13.06" style="fill:#ebebeb"></rect><rect x="612.09" y="287.85" width="12.69" height="13.06" style="fill:#ebebeb"></rect><rect x="595.86" y="310.03" width="12.69" height="13.06" style="fill:#ebebeb"></rect><rect x="612.09" y="310.03" width="12.69" height="13.06" style="fill:#ebebeb"></rect><rect x="595.86" y="332.21" width="12.69" height="13.06" style="fill:#ebebeb"></rect><rect x="612.09" y="332.21" width="12.69" height="13.06" style="fill:#ebebeb"></rect><rect x="595.86" y="354.39" width="12.69" height="13.06" style="fill:#ebebeb"></rect><rect x="612.09" y="354.39" width="12.69" height="13.06" style="fill:#ebebeb"></rect><rect x="595.86" y="376.57" width="12.69" height="13.06" style="fill:#ebebeb"></rect><rect x="612.09" y="376.57" width="12.69" height="13.06" style="fill:#ebebeb"></rect><rect x="595.86" y="398.75" width="12.69" height="13.06" style="fill:#ebebeb"></rect><rect x="628.18" y="398.75" width="12.69" height="13.06" transform="translate(1269.05 810.56) rotate(180)" style="fill:#ebebeb"></rect><rect x="628.18" y="376.57" width="12.69" height="13.06" transform="translate(1269.05 766.2) rotate(180)" style="fill:#ebebeb"></rect><rect x="628.18" y="354.39" width="12.69" height="13.06" transform="translate(1269.05 721.84) rotate(180)" style="fill:#ebebeb"></rect><rect x="628.18" y="332.21" width="12.69" height="13.06" transform="translate(1269.05 677.48) rotate(180)" style="fill:#ebebeb"></rect><rect x="628.18" y="310.03" width="12.69" height="13.06" transform="translate(1269.05 633.12) rotate(180)" style="fill:#ebebeb"></rect><rect x="628.18" y="287.85" width="12.69" height="13.06" transform="translate(1269.05 588.76) rotate(180)" style="fill:#ebebeb"></rect><rect x="628.18" y="265.67" width="12.69" height="13.06" transform="translate(1269.05 544.4) rotate(180)" style="fill:#ebebeb"></rect><rect x="628.18" y="243.49" width="12.69" height="13.06" transform="translate(1269.05 500.04) rotate(180)" style="fill:#ebebeb"></rect><rect x="628.18" y="221.31" width="12.69" height="13.06" transform="translate(1269.05 455.68) rotate(180)" style="fill:#ebebeb"></rect><rect x="628.18" y="199.13" width="12.69" height="13.06" transform="translate(1269.05 411.32) rotate(180)" style="fill:#ebebeb"></rect><rect x="628.18" y="176.95" width="12.69" height="13.06" transform="translate(1269.05 366.96) rotate(180)" style="fill:#ebebeb"></rect><rect x="628.18" y="154.77" width="12.69" height="13.06" transform="translate(1269.05 322.6) rotate(180)" style="fill:#ebebeb"></rect><rect x="628.18" y="132.59" width="12.69" height="13.06" transform="translate(1269.05 278.24) rotate(180)" style="fill:#ebebeb"></rect><rect x="628.18" y="110.41" width="12.69" height="13.06" transform="translate(1269.05 233.88) rotate(180)" style="fill:#ebebeb"></rect><rect x="612.09" y="398.75" width="12.69" height="13.06" style="fill:#ebebeb"></rect><rect x="651" y="99.29" width="51.46" height="342.14" style="fill:#a6a6a6"></rect><rect x="686.68" y="398.75" width="10.48" height="13.06" transform="translate(1383.84 810.56) rotate(180)" style="fill:#c7c7c7"></rect><rect x="673.28" y="398.75" width="10.48" height="13.06" transform="translate(1357.03 810.56) rotate(180)" style="fill:#c7c7c7"></rect><rect x="686.68" y="376.57" width="10.48" height="13.06" transform="translate(1383.84 766.2) rotate(180)" style="fill:#c7c7c7"></rect><rect x="673.28" y="376.57" width="10.48" height="13.06" transform="translate(1357.03 766.2) rotate(180)" style="fill:#c7c7c7"></rect><rect x="686.68" y="354.39" width="10.48" height="13.06" transform="translate(1383.84 721.84) rotate(180)" style="fill:#c7c7c7"></rect><rect x="673.28" y="354.39" width="10.48" height="13.06" transform="translate(1357.03 721.84) rotate(180)" style="fill:#c7c7c7"></rect><rect x="686.68" y="332.21" width="10.48" height="13.06" transform="translate(1383.84 677.48) rotate(180)" style="fill:#c7c7c7"></rect><rect x="673.28" y="332.21" width="10.48" height="13.06" transform="translate(1357.03 677.48) rotate(180)" style="fill:#c7c7c7"></rect><rect x="686.68" y="310.03" width="10.48" height="13.06" transform="translate(1383.84 633.12) rotate(180)" style="fill:#c7c7c7"></rect><rect x="673.28" y="310.03" width="10.48" height="13.06" transform="translate(1357.03 633.12) rotate(180)" style="fill:#c7c7c7"></rect><rect x="686.68" y="287.85" width="10.48" height="13.06" transform="translate(1383.84 588.76) rotate(180)" style="fill:#c7c7c7"></rect><rect x="673.28" y="287.85" width="10.48" height="13.06" transform="translate(1357.03 588.76) rotate(180)" style="fill:#c7c7c7"></rect><rect x="686.68" y="265.67" width="10.48" height="13.06" transform="translate(1383.84 544.4) rotate(180)" style="fill:#c7c7c7"></rect><rect x="673.28" y="265.67" width="10.48" height="13.06" transform="translate(1357.03 544.4) rotate(180)" style="fill:#c7c7c7"></rect><rect x="686.68" y="243.49" width="10.48" height="13.06" transform="translate(1383.84 500.04) rotate(180)" style="fill:#c7c7c7"></rect><rect x="673.28" y="243.49" width="10.48" height="13.06" transform="translate(1357.03 500.04) rotate(180)" style="fill:#c7c7c7"></rect><rect x="686.68" y="221.31" width="10.48" height="13.06" transform="translate(1383.84 455.68) rotate(180)" style="fill:#c7c7c7"></rect><rect x="673.28" y="221.31" width="10.48" height="13.06" transform="translate(1357.03 455.68) rotate(180)" style="fill:#c7c7c7"></rect><rect x="686.68" y="199.13" width="10.48" height="13.06" transform="translate(1383.84 411.32) rotate(180)" style="fill:#c7c7c7"></rect><rect x="673.28" y="199.13" width="10.48" height="13.06" transform="translate(1357.03 411.32) rotate(180)" style="fill:#c7c7c7"></rect><rect x="686.68" y="176.95" width="10.48" height="13.06" transform="translate(1383.84 366.96) rotate(180)" style="fill:#c7c7c7"></rect><rect x="673.28" y="176.95" width="10.48" height="13.06" transform="translate(1357.03 366.96) rotate(180)" style="fill:#c7c7c7"></rect><rect x="686.68" y="154.77" width="10.48" height="13.06" transform="translate(1383.84 322.6) rotate(180)" style="fill:#c7c7c7"></rect><rect x="673.28" y="154.77" width="10.48" height="13.06" transform="translate(1357.03 322.6) rotate(180)" style="fill:#c7c7c7"></rect><rect x="686.68" y="132.59" width="10.48" height="13.06" transform="translate(1383.84 278.24) rotate(180)" style="fill:#c7c7c7"></rect><rect x="673.28" y="132.59" width="10.48" height="13.06" transform="translate(1357.03 278.24) rotate(180)" style="fill:#c7c7c7"></rect><rect x="686.68" y="110.41" width="10.48" height="13.06" transform="translate(1383.84 233.88) rotate(180)" style="fill:#c7c7c7"></rect><rect x="659.99" y="110.41" width="10.48" height="13.06" style="fill:#c7c7c7"></rect><rect x="659.99" y="132.59" width="10.48" height="13.06" style="fill:#c7c7c7"></rect><rect x="659.99" y="154.77" width="10.48" height="13.06" style="fill:#c7c7c7"></rect><rect x="659.99" y="176.95" width="10.48" height="13.06" style="fill:#c7c7c7"></rect><rect x="659.99" y="199.13" width="10.48" height="13.06" style="fill:#c7c7c7"></rect><rect x="659.99" y="221.31" width="10.48" height="13.06" style="fill:#c7c7c7"></rect><rect x="659.99" y="243.49" width="10.48" height="13.06" style="fill:#c7c7c7"></rect><rect x="659.99" y="265.67" width="10.48" height="13.06" style="fill:#c7c7c7"></rect><rect x="659.99" y="287.85" width="10.48" height="13.06" style="fill:#c7c7c7"></rect><rect x="659.99" y="310.03" width="10.48" height="13.06" style="fill:#c7c7c7"></rect><rect x="659.99" y="332.21" width="10.48" height="13.06" style="fill:#c7c7c7"></rect><rect x="659.99" y="354.39" width="10.48" height="13.06" style="fill:#c7c7c7"></rect><rect x="659.99" y="376.57" width="10.48" height="13.06" style="fill:#c7c7c7"></rect><rect x="659.99" y="398.75" width="10.48" height="13.06" style="fill:#c7c7c7"></rect><rect x="673.28" y="110.41" width="10.48" height="13.06" transform="translate(1357.03 233.88) rotate(180)" style="fill:#c7c7c7"></rect><rect x="49.75" y="72.75" width="78.57" height="368.68" style="fill:#ebebeb"></rect><rect x="47.86" y="65.41" width="80.46" height="7.34" style="fill:#c7c7c7"></rect><rect x="56.85" y="83.57" width="7.96" height="357.86" style="fill:#fff"></rect><rect x="70.95" y="83.57" width="7.96" height="357.86" style="fill:#fff"></rect><rect x="85.05" y="83.57" width="7.96" height="357.86" style="fill:#fff"></rect><rect x="99.15" y="83.57" width="7.96" height="357.86" style="fill:#fff"></rect><rect x="113.26" y="83.57" width="7.96" height="357.86" style="fill:#fff"></rect><rect x="56.85" y="92.85" width="7.96" height="14.49" style="fill:#ebebeb"></rect><rect x="70.95" y="92.85" width="7.96" height="14.49" style="fill:#ebebeb"></rect><rect x="85.05" y="92.85" width="7.96" height="14.49" style="fill:#ebebeb"></rect><rect x="99.15" y="92.85" width="7.96" height="14.49" style="fill:#ebebeb"></rect><rect x="113.26" y="92.85" width="7.96" height="14.49" style="fill:#ebebeb"></rect><rect x="56.85" y="116.4" width="7.96" height="14.49" style="fill:#ebebeb"></rect><rect x="70.95" y="116.4" width="7.96" height="14.49" style="fill:#ebebeb"></rect><rect x="85.05" y="116.4" width="7.96" height="14.49" style="fill:#ebebeb"></rect><rect x="99.15" y="116.4" width="7.96" height="14.49" style="fill:#ebebeb"></rect><rect x="113.26" y="116.4" width="7.96" height="14.49" style="fill:#ebebeb"></rect><rect x="56.85" y="139.96" width="7.96" height="14.49" style="fill:#ebebeb"></rect><rect x="70.95" y="139.96" width="7.96" height="14.49" style="fill:#ebebeb"></rect><rect x="85.05" y="139.96" width="7.96" height="14.49" style="fill:#ebebeb"></rect><rect x="99.15" y="139.96" width="7.96" height="14.49" style="fill:#ebebeb"></rect><rect x="113.26" y="139.96" width="7.96" height="14.49" style="fill:#ebebeb"></rect><rect x="56.85" y="163.51" width="7.96" height="14.49" style="fill:#ebebeb"></rect><rect x="70.95" y="163.51" width="7.96" height="14.49" style="fill:#ebebeb"></rect><rect x="85.05" y="163.51" width="7.96" height="14.49" style="fill:#ebebeb"></rect><rect x="99.15" y="163.51" width="7.96" height="14.49" style="fill:#ebebeb"></rect><rect x="113.26" y="163.51" width="7.96" height="14.49" style="fill:#ebebeb"></rect><rect x="56.85" y="187.07" width="7.96" height="14.49" style="fill:#ebebeb"></rect><rect x="70.95" y="187.07" width="7.96" height="14.49" style="fill:#ebebeb"></rect><rect x="85.05" y="187.07" width="7.96" height="14.49" style="fill:#ebebeb"></rect><rect x="99.15" y="187.07" width="7.96" height="14.49" style="fill:#ebebeb"></rect><rect x="113.26" y="187.07" width="7.96" height="14.49" style="fill:#ebebeb"></rect><rect x="56.85" y="210.62" width="7.96" height="14.49" style="fill:#ebebeb"></rect><rect x="70.95" y="210.62" width="7.96" height="14.49" style="fill:#ebebeb"></rect><rect x="85.05" y="210.62" width="7.96" height="14.49" style="fill:#ebebeb"></rect><rect x="99.15" y="210.62" width="7.96" height="14.49" style="fill:#ebebeb"></rect><rect x="113.26" y="210.62" width="7.96" height="14.49" style="fill:#ebebeb"></rect><rect x="56.85" y="234.17" width="7.96" height="14.49" style="fill:#ebebeb"></rect><rect x="70.95" y="234.17" width="7.96" height="14.49" style="fill:#ebebeb"></rect><rect x="85.05" y="234.17" width="7.96" height="14.49" style="fill:#ebebeb"></rect><rect x="99.15" y="234.17" width="7.96" height="14.49" style="fill:#ebebeb"></rect><rect x="113.26" y="234.17" width="7.96" height="14.49" style="fill:#ebebeb"></rect><rect x="56.85" y="257.73" width="7.96" height="14.49" style="fill:#ebebeb"></rect><rect x="70.95" y="257.73" width="7.96" height="14.49" style="fill:#ebebeb"></rect><rect x="85.05" y="257.73" width="7.96" height="14.49" style="fill:#ebebeb"></rect><rect x="99.15" y="257.73" width="7.96" height="14.49" style="fill:#ebebeb"></rect><rect x="113.26" y="257.73" width="7.96" height="14.49" style="fill:#ebebeb"></rect><rect x="56.85" y="281.28" width="7.96" height="14.49" style="fill:#ebebeb"></rect><rect x="70.95" y="281.28" width="7.96" height="14.49" style="fill:#ebebeb"></rect><rect x="85.05" y="281.28" width="7.96" height="14.49" style="fill:#ebebeb"></rect><rect x="99.15" y="281.28" width="7.96" height="14.49" style="fill:#ebebeb"></rect><rect x="113.26" y="281.28" width="7.96" height="14.49" style="fill:#ebebeb"></rect><rect x="56.85" y="304.83" width="7.96" height="14.49" style="fill:#ebebeb"></rect><rect x="70.95" y="304.83" width="7.96" height="14.49" style="fill:#ebebeb"></rect><rect x="85.05" y="304.83" width="7.96" height="14.49" style="fill:#ebebeb"></rect><rect x="99.15" y="304.83" width="7.96" height="14.49" style="fill:#ebebeb"></rect><rect x="113.26" y="304.83" width="7.96" height="14.49" style="fill:#ebebeb"></rect><rect x="56.85" y="328.39" width="7.96" height="14.49" style="fill:#ebebeb"></rect><rect x="70.95" y="328.39" width="7.96" height="14.49" style="fill:#ebebeb"></rect><rect x="85.05" y="328.39" width="7.96" height="14.49" style="fill:#ebebeb"></rect><rect x="99.15" y="328.39" width="7.96" height="14.49" style="fill:#ebebeb"></rect><rect x="113.26" y="328.39" width="7.96" height="14.49" style="fill:#ebebeb"></rect><rect x="56.85" y="351.94" width="7.96" height="14.49" style="fill:#ebebeb"></rect><rect x="70.95" y="351.94" width="7.96" height="14.49" style="fill:#ebebeb"></rect><rect x="85.05" y="351.94" width="7.96" height="14.49" style="fill:#ebebeb"></rect><rect x="99.15" y="351.94" width="7.96" height="14.49" style="fill:#ebebeb"></rect><rect x="113.26" y="351.94" width="7.96" height="14.49" style="fill:#ebebeb"></rect><rect x="56.85" y="375.49" width="7.96" height="14.49" style="fill:#ebebeb"></rect><rect x="70.95" y="375.49" width="7.96" height="14.49" style="fill:#ebebeb"></rect><rect x="85.05" y="375.49" width="7.96" height="14.49" style="fill:#ebebeb"></rect><rect x="99.15" y="375.49" width="7.96" height="14.49" style="fill:#ebebeb"></rect><rect x="113.26" y="375.49" width="7.96" height="14.49" style="fill:#ebebeb"></rect><rect x="56.85" y="399.05" width="7.96" height="42.39" style="fill:#ebebeb"></rect><rect x="70.95" y="399.05" width="7.96" height="42.39" style="fill:#ebebeb"></rect><rect x="85.05" y="399.05" width="7.96" height="42.39" style="fill:#ebebeb"></rect><rect x="99.15" y="399.05" width="7.96" height="42.39" style="fill:#ebebeb"></rect><rect x="113.26" y="399.05" width="7.96" height="42.39" style="fill:#ebebeb"></rect><rect x="128.32" y="72.75" width="50.44" height="368.68" style="fill:#dbdbdb"></rect><rect x="128.32" y="65.41" width="52.63" height="7.34" style="fill:#c7c7c7"></rect><rect x="135.43" y="83.57" width="7.96" height="357.86" style="fill:#c7c7c7"></rect><rect x="149.53" y="83.57" width="7.96" height="357.86" style="fill:#c7c7c7"></rect><rect x="163.63" y="83.57" width="7.96" height="357.86" style="fill:#c7c7c7"></rect><rect x="135.43" y="92.85" width="7.96" height="14.49" style="fill:#dbdbdb"></rect><rect x="149.53" y="92.85" width="7.96" height="14.49" style="fill:#dbdbdb"></rect><rect x="163.63" y="92.85" width="7.96" height="14.49" style="fill:#dbdbdb"></rect><rect x="135.43" y="116.4" width="7.96" height="14.49" style="fill:#dbdbdb"></rect><rect x="149.53" y="116.4" width="7.96" height="14.49" style="fill:#dbdbdb"></rect><rect x="163.63" y="116.4" width="7.96" height="14.49" style="fill:#dbdbdb"></rect><rect x="135.43" y="139.96" width="7.96" height="14.49" style="fill:#dbdbdb"></rect><rect x="149.53" y="139.96" width="7.96" height="14.49" style="fill:#dbdbdb"></rect><rect x="163.63" y="139.96" width="7.96" height="14.49" style="fill:#dbdbdb"></rect><rect x="135.43" y="163.51" width="7.96" height="14.49" style="fill:#dbdbdb"></rect><rect x="149.53" y="163.51" width="7.96" height="14.49" style="fill:#dbdbdb"></rect><rect x="163.63" y="163.51" width="7.96" height="14.49" style="fill:#dbdbdb"></rect><rect x="135.43" y="187.07" width="7.96" height="14.49" style="fill:#dbdbdb"></rect><rect x="149.53" y="187.07" width="7.96" height="14.49" style="fill:#dbdbdb"></rect><rect x="163.63" y="187.07" width="7.96" height="14.49" style="fill:#dbdbdb"></rect><rect x="135.43" y="210.62" width="7.96" height="14.49" style="fill:#dbdbdb"></rect><rect x="149.53" y="210.62" width="7.96" height="14.49" style="fill:#dbdbdb"></rect><rect x="163.63" y="210.62" width="7.96" height="14.49" style="fill:#dbdbdb"></rect><rect x="135.43" y="234.17" width="7.96" height="14.49" style="fill:#dbdbdb"></rect><rect x="149.53" y="234.17" width="7.96" height="14.49" style="fill:#dbdbdb"></rect><rect x="163.63" y="234.17" width="7.96" height="14.49" style="fill:#dbdbdb"></rect><rect x="135.43" y="257.73" width="7.96" height="14.49" style="fill:#dbdbdb"></rect><rect x="149.53" y="257.73" width="7.96" height="14.49" style="fill:#dbdbdb"></rect><rect x="163.63" y="257.73" width="7.96" height="14.49" style="fill:#dbdbdb"></rect><rect x="135.43" y="281.28" width="7.96" height="14.49" style="fill:#dbdbdb"></rect><rect x="149.53" y="281.28" width="7.96" height="14.49" style="fill:#dbdbdb"></rect><rect x="163.63" y="281.28" width="7.96" height="14.49" style="fill:#dbdbdb"></rect><rect x="135.43" y="304.83" width="7.96" height="14.49" style="fill:#dbdbdb"></rect><rect x="149.53" y="304.83" width="7.96" height="14.49" style="fill:#dbdbdb"></rect><rect x="163.63" y="304.83" width="7.96" height="14.49" style="fill:#dbdbdb"></rect><rect x="135.43" y="328.39" width="7.96" height="14.49" style="fill:#dbdbdb"></rect><rect x="149.53" y="328.39" width="7.96" height="14.49" style="fill:#dbdbdb"></rect><rect x="163.63" y="328.39" width="7.96" height="14.49" style="fill:#dbdbdb"></rect><rect x="135.43" y="351.94" width="7.96" height="14.49" style="fill:#dbdbdb"></rect><rect x="149.53" y="351.94" width="7.96" height="14.49" style="fill:#dbdbdb"></rect><rect x="163.63" y="351.94" width="7.96" height="14.49" style="fill:#dbdbdb"></rect><rect x="135.43" y="375.49" width="7.96" height="14.49" style="fill:#dbdbdb"></rect><rect x="149.53" y="375.49" width="7.96" height="14.49" style="fill:#dbdbdb"></rect><rect x="163.63" y="375.49" width="7.96" height="14.49" style="fill:#dbdbdb"></rect><rect x="135.43" y="399.05" width="7.96" height="42.39" style="fill:#dbdbdb"></rect><rect x="149.53" y="399.05" width="7.96" height="42.39" style="fill:#dbdbdb"></rect><rect x="163.63" y="399.05" width="7.96" height="42.39" style="fill:#dbdbdb"></rect><rect x="442.27" y="196.54" width="64.57" height="244.9" style="fill:#ebebeb"></rect><rect x="451.46" y="180.29" width="55.39" height="16.24" style="fill:#c7c7c7"></rect><rect x="449.35" y="205.01" width="50.41" height="183.08" style="fill:#dbdbdb"></rect><rect x="449.35" y="222.48" width="50.41" height="4.33" style="fill:#fff"></rect><rect x="449.35" y="240.4" width="50.41" height="4.33" style="fill:#fff"></rect><rect x="449.35" y="258.32" width="50.41" height="4.33" style="fill:#fff"></rect><rect x="449.35" y="276.24" width="50.41" height="4.33" style="fill:#fff"></rect><rect x="449.35" y="294.17" width="50.41" height="4.33" style="fill:#fff"></rect><rect x="449.35" y="312.09" width="50.41" height="4.33" style="fill:#fff"></rect><rect x="449.35" y="330.01" width="50.41" height="4.33" style="fill:#fff"></rect><rect x="449.35" y="347.93" width="50.41" height="4.33" style="fill:#fff"></rect><rect x="449.35" y="365.85" width="50.41" height="4.33" style="fill:#fff"></rect><rect x="449.35" y="383.77" width="50.41" height="4.33" style="fill:#fff"></rect><rect x="506.85" y="196.54" width="40.45" height="244.9" style="fill:#dbdbdb"></rect><rect x="506.85" y="180.29" width="34.38" height="16.24" style="fill:#a6a6a6"></rect><rect x="512.43" y="205.01" width="31.1" height="183.08" style="fill:#c7c7c7"></rect><rect x="512.43" y="222.48" width="31.1" height="4.33" style="fill:#fff"></rect><rect x="512.43" y="240.4" width="31.1" height="4.33" style="fill:#fff"></rect><rect x="512.43" y="258.32" width="31.1" height="4.33" style="fill:#fff"></rect><rect x="512.43" y="276.24" width="31.1" height="4.33" style="fill:#fff"></rect><rect x="512.43" y="294.17" width="31.1" height="4.33" style="fill:#fff"></rect><rect x="512.43" y="312.09" width="31.1" height="4.33" style="fill:#fff"></rect><rect x="512.43" y="330.01" width="31.1" height="4.33" style="fill:#fff"></rect><rect x="512.43" y="347.93" width="31.1" height="4.33" style="fill:#fff"></rect><rect x="512.43" y="365.85" width="31.1" height="4.33" style="fill:#fff"></rect><rect x="512.43" y="383.77" width="31.1" height="4.33" style="fill:#fff"></rect><rect x="546.6" y="200.66" width="34.49" height="40.74" style="fill:#dbdbdb"></rect><rect x="581.09" y="200.66" width="21.87" height="42.23" style="fill:#c7c7c7"></rect><rect x="582.71" y="218.65" width="21.7" height="24.24" style="fill:#dbdbdb"></rect><rect x="604.41" y="218.65" width="13.54" height="24.24" style="fill:#c7c7c7"></rect><rect x="533.37" y="238.76" width="55.77" height="202.68" style="fill:#ebebeb"></rect><rect x="539.74" y="247.47" width="17.54" height="7.17" style="fill:#fff"></rect><rect x="562.18" y="247.47" width="17.54" height="7.17" style="fill:#fff"></rect><rect x="539.74" y="259.63" width="17.54" height="7.17" style="fill:#fff"></rect><rect x="562.18" y="259.63" width="17.54" height="7.17" style="fill:#fff"></rect><rect x="539.74" y="271.8" width="17.54" height="7.17" style="fill:#fff"></rect><rect x="562.18" y="271.8" width="17.54" height="7.17" style="fill:#fff"></rect><rect x="539.74" y="283.97" width="17.54" height="7.17" style="fill:#fff"></rect><rect x="562.18" y="283.97" width="17.54" height="7.17" style="fill:#fff"></rect><rect x="539.74" y="296.13" width="17.54" height="7.17" style="fill:#fff"></rect><rect x="562.18" y="296.13" width="17.54" height="7.17" style="fill:#fff"></rect><rect x="539.74" y="308.3" width="17.54" height="7.17" style="fill:#fff"></rect><rect x="562.18" y="308.3" width="17.54" height="7.17" style="fill:#fff"></rect><rect x="539.74" y="320.46" width="17.54" height="7.17" style="fill:#fff"></rect><rect x="562.18" y="320.46" width="17.54" height="7.17" style="fill:#fff"></rect><rect x="539.74" y="332.63" width="17.54" height="7.17" style="fill:#fff"></rect><rect x="562.18" y="332.63" width="17.54" height="7.17" style="fill:#fff"></rect><rect x="539.74" y="344.79" width="17.54" height="7.17" style="fill:#fff"></rect><rect x="562.18" y="344.79" width="17.54" height="7.17" style="fill:#fff"></rect><rect x="539.74" y="356.96" width="17.54" height="7.17" style="fill:#fff"></rect><rect x="562.18" y="356.96" width="17.54" height="7.17" style="fill:#fff"></rect><rect x="539.74" y="369.12" width="17.54" height="7.17" style="fill:#fff"></rect><rect x="562.18" y="369.12" width="17.54" height="7.17" style="fill:#fff"></rect><rect x="539.74" y="381.29" width="17.54" height="7.17" style="fill:#fff"></rect><rect x="562.18" y="381.29" width="17.54" height="7.17" style="fill:#fff"></rect><rect x="539.74" y="393.45" width="17.54" height="7.17" style="fill:#fff"></rect><rect x="562.18" y="393.45" width="17.54" height="7.17" style="fill:#fff"></rect><rect x="539.74" y="405.62" width="17.54" height="7.17" style="fill:#fff"></rect><rect x="562.18" y="405.62" width="17.54" height="7.17" style="fill:#fff"></rect><rect x="589.14" y="238.76" width="45.19" height="202.68" style="fill:#c7c7c7"></rect><rect x="615.4" y="405.62" width="14.4" height="7.17" transform="translate(1245.19 818.41) rotate(180)" style="fill:#ebebeb"></rect><rect x="596.98" y="405.62" width="14.4" height="7.17" transform="translate(1208.35 818.41) rotate(180)" style="fill:#ebebeb"></rect><rect x="615.4" y="393.45" width="14.4" height="7.17" transform="translate(1245.19 794.07) rotate(180)" style="fill:#ebebeb"></rect><rect x="596.98" y="393.45" width="14.4" height="7.17" transform="translate(1208.35 794.07) rotate(180)" style="fill:#ebebeb"></rect><rect x="615.4" y="381.29" width="14.4" height="7.17" transform="translate(1245.19 769.74) rotate(180)" style="fill:#ebebeb"></rect><rect x="596.98" y="381.29" width="14.4" height="7.17" transform="translate(1208.35 769.74) rotate(180)" style="fill:#ebebeb"></rect><rect x="615.4" y="369.12" width="14.4" height="7.17" transform="translate(1245.19 745.41) rotate(180)" style="fill:#ebebeb"></rect><rect x="596.98" y="369.12" width="14.4" height="7.17" transform="translate(1208.35 745.41) rotate(180)" style="fill:#ebebeb"></rect><rect x="615.4" y="356.96" width="14.4" height="7.17" transform="translate(1245.19 721.08) rotate(180)" style="fill:#ebebeb"></rect><rect x="596.98" y="356.96" width="14.4" height="7.17" transform="translate(1208.35 721.08) rotate(180)" style="fill:#ebebeb"></rect><rect x="615.4" y="344.79" width="14.4" height="7.17" transform="translate(1245.19 696.75) rotate(180)" style="fill:#ebebeb"></rect><rect x="596.98" y="344.79" width="14.4" height="7.17" transform="translate(1208.35 696.75) rotate(180)" style="fill:#ebebeb"></rect><rect x="615.4" y="332.63" width="14.4" height="7.17" transform="translate(1245.19 672.42) rotate(180)" style="fill:#ebebeb"></rect><rect x="596.98" y="332.63" width="14.4" height="7.17" transform="translate(1208.35 672.42) rotate(180)" style="fill:#ebebeb"></rect><rect x="615.4" y="320.46" width="14.4" height="7.17" transform="translate(1245.19 648.09) rotate(180)" style="fill:#ebebeb"></rect><rect x="596.98" y="320.46" width="14.4" height="7.17" transform="translate(1208.35 648.09) rotate(180)" style="fill:#ebebeb"></rect><rect x="615.4" y="308.3" width="14.4" height="7.17" transform="translate(1245.19 623.76) rotate(180)" style="fill:#ebebeb"></rect><rect x="596.98" y="308.3" width="14.4" height="7.17" transform="translate(1208.35 623.76) rotate(180)" style="fill:#ebebeb"></rect><rect x="615.4" y="296.13" width="14.4" height="7.17" transform="translate(1245.19 599.43) rotate(180)" style="fill:#ebebeb"></rect><rect x="596.98" y="296.13" width="14.4" height="7.17" transform="translate(1208.35 599.43) rotate(180)" style="fill:#ebebeb"></rect><rect x="615.4" y="283.97" width="14.4" height="7.17" transform="translate(1245.19 575.1) rotate(180)" style="fill:#ebebeb"></rect><rect x="596.98" y="283.97" width="14.4" height="7.17" transform="translate(1208.35 575.1) rotate(180)" style="fill:#ebebeb"></rect><rect x="615.4" y="271.8" width="14.4" height="7.17" transform="translate(1245.19 550.77) rotate(180)" style="fill:#ebebeb"></rect><rect x="596.98" y="271.8" width="14.4" height="7.17" transform="translate(1208.35 550.77) rotate(180)" style="fill:#ebebeb"></rect><rect x="615.4" y="259.63" width="14.4" height="7.17" transform="translate(1245.19 526.43) rotate(180)" style="fill:#ebebeb"></rect><rect x="596.98" y="259.63" width="14.4" height="7.17" transform="translate(1208.35 526.43) rotate(180)" style="fill:#ebebeb"></rect><rect x="615.4" y="247.47" width="14.4" height="7.17" transform="translate(1245.19 502.1) rotate(180)" style="fill:#ebebeb"></rect><rect x="596.98" y="247.47" width="14.4" height="7.17" transform="translate(1208.35 502.1) rotate(180)" style="fill:#ebebeb"></rect><rect x="116.78" y="248.15" width="64.09" height="193.29" style="fill:#c7c7c7"></rect><rect x="126.86" y="264.88" width="11.34" height="11.84" style="fill:#dbdbdb"></rect><rect x="126.86" y="290.17" width="11.34" height="11.84" style="fill:#dbdbdb"></rect><rect x="126.86" y="315.47" width="11.34" height="11.84" style="fill:#dbdbdb"></rect><rect x="126.86" y="340.76" width="11.34" height="11.84" style="fill:#dbdbdb"></rect><rect x="126.86" y="366.05" width="11.34" height="11.84" style="fill:#dbdbdb"></rect><rect x="126.86" y="391.35" width="11.34" height="11.84" style="fill:#dbdbdb"></rect><rect x="126.86" y="416.64" width="11.34" height="11.84" style="fill:#dbdbdb"></rect><rect x="143.18" y="264.88" width="11.34" height="11.84" style="fill:#dbdbdb"></rect><rect x="143.18" y="290.17" width="11.34" height="11.84" style="fill:#dbdbdb"></rect><rect x="143.18" y="315.47" width="11.34" height="11.84" style="fill:#dbdbdb"></rect><rect x="143.18" y="340.76" width="11.34" height="11.84" style="fill:#dbdbdb"></rect><rect x="143.18" y="366.05" width="11.34" height="11.84" style="fill:#dbdbdb"></rect><rect x="143.18" y="391.35" width="11.34" height="11.84" style="fill:#dbdbdb"></rect><rect x="143.18" y="416.64" width="11.34" height="11.84" style="fill:#dbdbdb"></rect><rect x="159.45" y="264.88" width="11.34" height="11.84" style="fill:#dbdbdb"></rect><rect x="159.45" y="290.17" width="11.34" height="11.84" style="fill:#dbdbdb"></rect><rect x="159.45" y="315.47" width="11.34" height="11.84" style="fill:#dbdbdb"></rect><rect x="159.45" y="340.76" width="11.34" height="11.84" style="fill:#dbdbdb"></rect><rect x="159.45" y="366.05" width="11.34" height="11.84" style="fill:#dbdbdb"></rect><rect x="159.45" y="391.35" width="11.34" height="11.84" style="fill:#dbdbdb"></rect><rect x="159.45" y="416.64" width="11.34" height="11.84" style="fill:#dbdbdb"></rect><rect x="138.21" y="228.01" width="42.67" height="20.14" style="fill:#dbdbdb"></rect><rect x="153.82" y="215.54" width="27.05" height="12.47" style="fill:#ebebeb"></rect><rect x="180.88" y="248.15" width="53.31" height="193.29" style="fill:#a6a6a6"></rect><rect x="217.78" y="414.75" width="10.95" height="11.84" transform="translate(446.52 841.35) rotate(180)" style="fill:#c7c7c7"></rect><rect x="217.78" y="389.46" width="10.95" height="11.84" transform="translate(446.52 790.76) rotate(180)" style="fill:#c7c7c7"></rect><rect x="217.78" y="364.17" width="10.95" height="11.84" transform="translate(446.52 740.17) rotate(180)" style="fill:#c7c7c7"></rect><rect x="217.78" y="338.87" width="10.95" height="11.84" transform="translate(446.52 689.59) rotate(180)" style="fill:#c7c7c7"></rect><rect x="217.78" y="313.58" width="10.95" height="11.84" transform="translate(446.52 639) rotate(180)" style="fill:#c7c7c7"></rect><rect x="217.78" y="288.28" width="10.95" height="11.84" transform="translate(446.52 588.41) rotate(180)" style="fill:#c7c7c7"></rect><rect x="217.78" y="262.99" width="10.95" height="11.84" transform="translate(446.52 537.82) rotate(180)" style="fill:#c7c7c7"></rect><rect x="202.04" y="414.75" width="10.95" height="11.84" transform="translate(415.02 841.35) rotate(180)" style="fill:#c7c7c7"></rect><rect x="202.04" y="389.46" width="10.95" height="11.84" transform="translate(415.02 790.76) rotate(180)" style="fill:#c7c7c7"></rect><rect x="202.04" y="364.17" width="10.95" height="11.84" transform="translate(415.02 740.17) rotate(180)" style="fill:#c7c7c7"></rect><rect x="202.04" y="338.87" width="10.95" height="11.84" transform="translate(415.02 689.59) rotate(180)" style="fill:#c7c7c7"></rect><rect x="202.04" y="313.58" width="10.95" height="11.84" transform="translate(415.02 639) rotate(180)" style="fill:#c7c7c7"></rect><rect x="202.04" y="288.28" width="10.95" height="11.84" transform="translate(415.02 588.41) rotate(180)" style="fill:#c7c7c7"></rect><rect x="202.04" y="262.99" width="10.95" height="11.84" transform="translate(415.02 537.82) rotate(180)" style="fill:#c7c7c7"></rect><rect x="186.33" y="414.75" width="10.95" height="11.84" transform="translate(383.61 841.35) rotate(180)" style="fill:#c7c7c7"></rect><rect x="186.33" y="389.46" width="10.95" height="11.84" transform="translate(383.61 790.76) rotate(180)" style="fill:#c7c7c7"></rect><rect x="186.33" y="364.17" width="10.95" height="11.84" transform="translate(383.61 740.17) rotate(180)" style="fill:#c7c7c7"></rect><rect x="186.33" y="338.87" width="10.95" height="11.84" transform="translate(383.61 689.59) rotate(180)" style="fill:#c7c7c7"></rect><rect x="186.33" y="313.58" width="10.95" height="11.84" transform="translate(383.61 639) rotate(180)" style="fill:#c7c7c7"></rect><rect x="186.33" y="288.28" width="10.95" height="11.84" transform="translate(383.61 588.41) rotate(180)" style="fill:#c7c7c7"></rect><rect x="186.33" y="262.99" width="10.95" height="11.84" transform="translate(383.61 537.82) rotate(180)" style="fill:#c7c7c7"></rect><rect x="180.88" y="228.01" width="45.24" height="20.14" style="fill:#c7c7c7"></rect><rect x="180.88" y="215.54" width="24.51" height="12.47" style="fill:#dbdbdb"></rect></g><g id="freepik--Floor--inject-5"><path d="M47,441.44c210.13-.62,445.85-.62,656,0-210.13.61-445.85.61-656,0Z" style="fill:#263238"></path></g><g id="freepik--traffic-light--inject-5"><polygon points="229 412.31 220.96 412.31 223.01 240.83 223.18 226.55 226.77 226.55 226.94 240.83 229 412.31" style="fill:#92E3A9"></polygon><polygon points="226.94 240.83 223.01 240.83 223.18 226.55 226.77 226.55 226.94 240.83" style="opacity:0.1"></polygon><polygon points="210.57 190.96 212.83 231.2 215.49 231.63 217.9 232.01 217.9 188.56 212.77 190.24 210.57 190.96" style="fill:#92E3A9"></polygon><path d="M213.07,195.66s-9.8.1-9.6.65,4.15,1.64,4.5,1.89,4.1,7.4,5.1,7.4S213.07,195.66,213.07,195.66Z" style="fill:#92E3A9"></path><path d="M213.79,207.05s-9.8.1-9.6.65,4.15,1.65,4.5,1.9,4.1,7.4,5.1,7.4S213.79,207.05,213.79,207.05Z" style="fill:#92E3A9"></path><path d="M214.51,218.44s-9.79.1-9.59.65,4.14,1.65,4.49,1.9,4.1,7.4,5.1,7.4S214.51,218.44,214.51,218.44Z" style="fill:#92E3A9"></path><polygon points="212.77 190.24 215.49 231.63 217.9 232.01 217.9 188.56 212.77 190.24" style="opacity:0.1"></polygon><polygon points="239.38 190.96 237.11 231.2 234.46 231.63 232.04 232.01 232.04 188.56 237.18 190.24 239.38 190.96" style="fill:#92E3A9"></polygon><path d="M236.88,195.66s9.79.1,9.59.65-4.15,1.64-4.5,1.89-4.09,7.4-5.09,7.4S236.88,195.66,236.88,195.66Z" style="fill:#92E3A9"></path><path d="M236.15,207.05s9.8.1,9.6.65-4.15,1.65-4.5,1.9-4.1,7.4-5.1,7.4S236.15,207.05,236.15,207.05Z" style="fill:#92E3A9"></path><path d="M235.43,218.44s9.8.1,9.6.65-4.15,1.65-4.5,1.9-4.1,7.4-5.1,7.4S235.43,218.44,235.43,218.44Z" style="fill:#92E3A9"></path><polygon points="237.18 190.24 234.46 231.63 232.04 232.01 232.04 188.56 237.18 190.24" style="opacity:0.1"></polygon><polygon points="234.17 185.28 233.37 232.99 216.58 232.99 215.78 185.28 234.17 185.28" style="fill:#92E3A9"></polygon><path d="M231,193.75a6,6,0,1,1-6-6A6,6,0,0,1,231,193.75Z" style="fill:#db6a57"></path><path d="M231,224a6,6,0,1,1-6-6A6,6,0,0,1,231,224Z" style="fill:#fff"></path><path d="M231,209a6,6,0,1,1-6-6A6,6,0,0,1,231,209Z" style="fill:#fff"></path><polygon points="231.41 441.44 218.53 441.44 219.63 407.73 219.97 397.27 229.7 397.27 230.1 407.73 231.41 441.44" style="fill:#92E3A9"></polygon><polygon points="230.1 407.73 219.63 407.73 219.97 397.27 229.7 397.27 230.1 407.73" style="opacity:0.1"></polygon></g><g id="freepik--Crash--inject-5"><g style="opacity:0.5"><path d="M295.05,390.86c6.51,4.62,43.34-22.6,50.25-27.84s2-24.41-6.25-28.06-15.24-7.79-16.9-18,1.07-15.56,8.7-18.1,22.74-7,19.35-23.16-21-12.47-30.56-15.6-20.18-7.82-19.44-18.76,11-9.39,27.24-9.91,28-27.88,29.27-36-.65-25.67-9.64-26.32-15.11,12.11-20.59,7.29,10-9.51,9.78-15.5S330.65,149.6,324.4,154s-17.59,9.51-22.68,1.17.13-16.81,6.91-19.28,16.16-3.78,17.85-11.86-9.9-18.24-5.08-27,12.12-4.56,12.12-4.56-8.6-4.3-13.94,1.17,4.56,22-1.57,26.71-27.49,3.52-34.27,10.82-15.5,18.89-9.64,28.53,21.63,10.82,27.88,10.82,11.86-2.87,14.08-1.69-.91,4.69-6.39,6.9-17.46,12-9,20.07,21.89-2.09,27.24-4.69,0,28.53-14.34,30.88-21.37-8.08-30.36-6.38-21,16.67-14.22,34.4,40.67,23,43.67,28.05,2,10.43-2.65,13-28.75,5-35,23.6S268,371.67,295.05,390.86Z" style="fill:#dbdbdb"></path><path d="M341.46,361.33c6.49-3.45,8.84-13,7.15-19.87a9.06,9.06,0,0,0-2.27-4.41c-5.47-4.68-14.88-5.08-18.74-12.31a19.68,19.68,0,0,1-2-13.45c1.23-5.43,6.49-9,11.52-10.15,4.15-.76,8.25-1.93,11.44-4.81,6.5-5.48,8.5-14.86,6.77-23a14,14,0,0,0-6.8-9.83c-3.63-2.18-8.05-3.19-12.41-4.41s-9.59-2.41-12.26-6.7c-2.85-4.43-.32-10.25,3.76-12.82a17.51,17.51,0,0,1,6.47-2.66c2.25-.43,4.44-.43,6.52-1.4,8.23-3.82,12.38-13.14,14.93-21.42-2.34,8.54-6.17,18-14.56,22.25-2,1.06-4.48,1.2-6.65,1.67a16.34,16.34,0,0,0-5.91,2.67c-6,4.33-5.32,11.92,1.9,14.32,6.43,2.46,13.25,2.68,19.59,6.11a17.17,17.17,0,0,1,8.56,11.51c3.61,14.1-3.55,29.7-18.64,32.61-6.75,1.32-11.08,5.71-9.07,12.81a16.66,16.66,0,0,0,1.55,4c1.18,1.94,3,3,5.28,4.11C343,328.5,350.23,330,353.3,336a26.37,26.37,0,0,1-2.14,26.2,19.84,19.84,0,0,1-6.08,5.58l-3.62-6.43Z" style="fill:#dbdbdb"></path><path d="M288.21,395c-17.58-17.08-31.78-41.17-28.54-66.49,1.56-10.37,5.59-20.58,12.64-28.32,5.94-5.93,13.8-9.24,21.53-11.95a49.57,49.57,0,0,0,5.34-2.06c2.22-1.11,2.69-5.07.47-6.38-13.09-7.42-34.48-13-36.27-30.67,2.73,17.43,24.21,21.57,37.6,28.3,4.2,2.26,3.67,9-.29,11.23a51.57,51.57,0,0,1-5.76,2.49c-5.42,2.13-10.9,4.59-15.51,8.06a26.65,26.65,0,0,0-7.46,8.25,52.39,52.39,0,0,0-4.63,44.2c4.89,14.51,14.42,27.54,25.73,37.78L288.21,395Z" style="fill:#dbdbdb"></path></g><path d="M318.82,335.32l28.72,21.58-35.91-6.3L310.86,379l-10.43-26-18.36,25.21L289.65,351l-34.35,5.93,30.75-16.33-20.61-4.28,22.36-3.58-23-26.76L296,320.71l4.38-37,8.18,35.05s25.78-21.15,25-20.56-17.72,27.15-17.72,27.15l28-8.05Z" style="fill:#92E3A9"></path><path d="M318.82,335.32l28.72,21.58-35.91-6.3L310.86,379l-10.43-26-18.36,25.21L289.65,351l-34.35,5.93,30.75-16.33-20.61-4.28,22.36-3.58-23-26.76L296,320.71l4.38-37,8.18,35.05s25.78-21.15,25-20.56-17.72,27.15-17.72,27.15l28-8.05Z" style="fill:#fff;opacity:0.4"></path><path d="M314,335.27l20.13,15.13L309,346l-.54,19.93-7.31-18.27-12.88,17.68,5.32-19.05-23.88,5.81L291.06,339l-14.45-3,15.67-2.51-16.13-18.76L298.06,325l3.07-25.94,5.73,24.57s18.07-14.83,17.5-14.41-12.42,19-12.42,19l19.6-5.64Z" style="fill:#fff;opacity:0.4"></path></g><g id="freepik--car-1--inject-5"><rect x="61.13" y="369.05" width="34.86" height="72.7" rx="11.25" style="fill:#263238"></rect><rect x="263.38" y="368.11" width="34.86" height="72.7" rx="11.25" transform="translate(518.02 835.93) rotate(-174.03)" style="fill:#263238"></rect><path d="M93.72,315.85s-4.76-2.21-5.44-3.38-3.64-6.07-4.74-6.3c-4.12-.86-15.47-.88-19.36,1-2.12,1-.25,9.41,1.58,11.43s15.48,2.95,17.71,2.6a7.44,7.44,0,0,0,3.94-2.57l5.38,1.73Z" style="fill:#455a64"></path><path d="M95.3,309.81s-3.7.39-4.62,1.12-4,6.81-3.86,8.95,2.27,4.43,2.27,4.43Z" style="fill:#455a64"></path><path d="M95.3,309.81s-3.7.39-4.62,1.12-4,6.81-3.86,8.95,2.27,4.43,2.27,4.43Z" style="opacity:0.1"></path><path d="M280.07,323.72s5.25,0,6.36-.73,5.89-3.95,7-3.68c4.09,1,14.37,5.8,17.07,9.17,1.48,1.85-3.78,8.62-6.3,9.66s-15.27-3.93-17.12-5.2a7.47,7.47,0,0,1-2.48-4l-5.6-.74Z" style="fill:#455a64"></path><path d="M275.42,319.79s3.63.84,4.45,1.68,3.1,7.24,2.75,9.35-2.79,4.12-2.79,4.12Z" style="fill:#455a64"></path><path d="M275.42,319.79s3.63.84,4.45,1.68,3.1,7.24,2.75,9.35-2.79,4.12-2.79,4.12Z" style="opacity:0.1"></path><path d="M76.16,343.8s-8.24,3.8-10.28,7.53-1.7,43.06-1.81,46.07,5,22.87,6,25,16.29,5.08,16.29,5.08Z" style="fill:#455a64"></path><path d="M76.16,343.8s-8.24,3.8-10.28,7.53-1.7,43.06-1.81,46.07,5,22.87,6,25,16.29,5.08,16.29,5.08Z" style="opacity:0.1"></path><path d="M290.05,352.2s4.95,5.14,5.76,7.21c.2.49.48,4.25.65,5.2,0,0,1.89,5,2,6.76.06,1.41-3.83,27.19-3.64,29.87s1.59,4.24,1.54,5.38A31.34,31.34,0,0,1,295,410c0,.26.57,2.59.35,3.33-2,6.87-4.52,16.22-5.38,17.66-1.19,2-16.64,3.79-16.64,3.79Z" style="fill:#455a64"></path><g style="opacity:0.1"><path d="M290.05,352.2s4.95,5.14,5.76,7.21c.2.49.48,4.25.65,5.2,0,0,1.89,5,2,6.76.06,1.41-3.83,27.19-3.64,29.87s1.59,4.24,1.54,5.38A31.34,31.34,0,0,1,295,410c0,.26.57,2.59.35,3.33-2,6.87-4.52,16.22-5.38,17.66-1.19,2-16.64,3.79-16.64,3.79Z"></path></g><path d="M290.62,417.63c-.11,1-4.18,15.61-5.66,17.06s-30,1.51-31.78,1.45-7.07-3.37-8.09-3.65-58.21-2.36-65.2-2.64-64.16-2.68-65.2-2.48-6.62,3.07-8.37,3S76.13,428,74.77,426.43,70.5,410,70.46,409s1.21-4.63,1.24-5.43,1.35-56,1.63-57,2.82-8.45,3.9-10S87.77,323.9,88,323.2c6.2-16.44,22.68-40.19,25.14-42.24a15.59,15.59,0,0,1,8-3.44c2.38-.2,34.55-.12,64.6,1.06s62.13,3.63,64.49,4a15.77,15.77,0,0,1,7.75,4.05c2.28,2.24,16.85,27.22,21.75,44.09.21.72,8.79,12.47,9.74,14.12s2.9,9.21,3.1,10.28c.09.51-1.15,12.52-1.83,25.6-.08,1.62.33,3.6.37,5.23,0,.74-4.38,7.93-4.34,8.35.18,1.79,3,17.48,2.95,17.82C289.78,412.92,290.74,416.6,290.62,417.63Z" style="fill:#455a64"></path><path d="M284.1,407.54c0,.95-1.62,8.29-2.46,8.46-23.15,4.81-78.42,7.44-101.45,6.16-23.06-.53-77.94-7.48-100.65-14.09-.83-.24-1.82-7.68-1.78-8.63s1.4-11.44,2.58-11.71,25.27,5,45.56,8.55A432.68,432.68,0,0,0,181,401.87a430.61,430.61,0,0,0,55.36-1.26c20.49-1.9,44.92-5.31,46.09-4.94S284.13,406.59,284.1,407.54Z" style="opacity:0.1"></path><path d="M262,397.83l-8.68,21.91c-25.55,2.31-57.15,3.31-73.17,2.42-16-.37-47.45-3.84-72.75-8.15l-6.93-22.52c7.83,1.55,16.94,3.33,25.39,4.79A432.68,432.68,0,0,0,181,401.87a430.61,430.61,0,0,0,55.36-1.26C244.88,399.82,254.11,398.77,262,397.83Z" style="fill:#fff;opacity:0.5"></path><path d="M236.35,400.61c.09.54-4.63,9.08-8.15,14.13-1,1.51-5.92,4.88-7,5.08s-14.93,3.36-41,2.34-39.56-5.27-40.66-5.55-5.69-4-6.62-5.61c-3.1-5.31-7.14-14.2-7-14.72s16.31,4.06,55.09,5.59S236.27,400.08,236.35,400.61Z" style="fill:#263238"></path><path d="M94.71,400a4.81,4.81,0,1,1-4.62-5A4.81,4.81,0,0,1,94.71,400Z" style="fill:#fff"></path><path d="M86.64,396.26A5.2,5.2,0,0,1,95.33,400a5.25,5.25,0,0,1-5.64,5.21,5.2,5.2,0,0,1-3-9Zm0,0a4.47,4.47,0,1,0,6.54.51,4.49,4.49,0,0,0-6.54-.51Z" style="fill:#dbdbdb"></path><path d="M266.62,406.74a4.81,4.81,0,1,0,5-4.62A4.81,4.81,0,0,0,266.62,406.74Z" style="fill:#fff"></path><path d="M275,403.66a4.47,4.47,0,1,0-.51,6.54,4.5,4.5,0,0,0,.51-6.54Zm0,0a5.19,5.19,0,0,1-3.75,8.69,5.26,5.26,0,0,1-5.21-5.64,5.2,5.2,0,0,1,9-3Z" style="fill:#dbdbdb"></path><path d="M275.52,329.75s-43,.19-91.63-1.72-91.49-5.47-91.49-5.47c9.65-21.66,21.8-38.23,23.1-39.13a33,33,0,0,1,7.16-2.65c5.45-1.14,44,.14,63.05.89s57.58,2.49,62.92,4.05a33.37,33.37,0,0,1,6.93,3.21C256.79,289.93,267.6,307.4,275.52,329.75Z" style="fill:#37474f"></path><path d="M275.52,329.75s-43,.19-91.63-1.72-91.49-5.47-91.49-5.47q1.36-3.06,2.78-6c9.86.78,47.27,3.63,88.95,5.27s79.2,1.73,89.09,1.72Q274.39,326.59,275.52,329.75Z" style="fill:#263238"></path><g style="opacity:0.30000000000000004"><path d="M275.52,329.75c-4.09-3-9.35-6.43-13.14-9.47l.06-6.23.13.21-9.31-4.48-.06,0,0-.05-6.94-10.43c-4.6-1.65-10.43-4-15.42-6,5.25,1.91,10.58,3.73,15.76,5.75l7,10.39-.09-.09,9.28,4.52.13.06v.14l-.11,6.22c3.69,2.43,8.66,6.47,12.74,9.47Z" style="fill:#fff"></path><path d="M267.62,324c-4.29.28-8.58.6-12.87.82l-9.62-2.9c-4.25-.32-9.06-.7-13.49-1.08s-9.07-.76-13.61-1.18c-2.55-3.28-5.07-6.6-7.59-9.91,2.43,3.09,5.67,6.8,7.69,9.59q6.78.48,13.55,1t13.58,1.12l9.59,3c4-.21,8.59-.34,12.77-.5Z" style="fill:#fff"></path><path d="M242.27,321.44c-3.06-1.75-6.17-3.75-9.09-5.73-1.7-.27-4.35-.93-6.34-1.44,2.19.29,4.38.63,6.55,1,3,1.91,6.06,4,8.88,6.13Z" style="fill:#fff"></path><path d="M261.48,313.48c-1-1.61-1.84-3.25-2.7-4.91.36-1.83.94-4.43,1.38-6.27l0,.15c-.75-1.37-1.5-2.73-2.2-4.13.91,1.3,1.75,2.64,2.6,4-.37,1.87-.92,4.46-1.36,6.29a52.12,52.12,0,0,1,2.26,4.89Z" style="fill:#fff"></path><path d="M261.33,324.29c-1.79-1.2-3.87-2.68-5.46-3.83l-4-1.7-4-1.76-.1,0c-.28-1.24-.52-2.5-.78-3.75s-.47-2.44-.69-3.66c.34,1.19.67,2.39,1,3.59s.63,2.41.9,3.62l-.12-.16,4,1.71,4,1.75q2.68,2.07,5.29,4.23Z" style="fill:#fff"></path><path d="M248.33,322.64c-1.77,1-3.56,2-5.38,3q-4.32,0-8.66-.19c-.95,0-1.91-.11-2.86-.18.95-.05,1.91-.09,2.87-.11,2.69,0,6.2-.09,8.5.06q2.73-1.33,5.53-2.54Z" style="fill:#fff"></path></g><path d="M107.47,319.52l15.08.59a23.14,23.14,0,0,0-1.25-3.78c-.41-.49-4.27-1.32-6.1-1.39s-5.74.46-6.18.91A23.12,23.12,0,0,0,107.47,319.52Z" style="fill:#263238"></path><path d="M114.74,315.31s8.91-2.91,9.75-3,36.41-1.43,36.41-1.43l.06.78s-34.37,2.5-34.93,2.56S114.92,318,114.92,318Z" style="fill:#263238"></path><path d="M207.18,323.43l15.09.6a22.38,22.38,0,0,0-1.26-3.78c-.4-.49-4.27-1.32-6.09-1.4s-5.75.46-6.19.92A22.69,22.69,0,0,0,207.18,323.43Z" style="fill:#263238"></path><path d="M214.45,319.22s8.91-2.9,9.75-3,36.42-1.43,36.42-1.43l.05.78-34.92,2.55c-.56.05-11.12,3.74-11.12,3.74Z" style="fill:#263238"></path><g style="opacity:0.1"><path d="M170.47,281.11l-47.25,43.68c-4-.25-7.63-.5-11-.73l46.83-43.3Z" style="fill:#fff"></path><path d="M257,290.83,215.64,329l-11.43-.31,45.93-42.46a27.62,27.62,0,0,1,5.42,2.66A13.19,13.19,0,0,1,257,290.83Z" style="fill:#fff"></path><path d="M272.56,321.92l-8.45,7.82c-3.3,0-7.22,0-11.67-.09l16.81-15.53C270.36,316.6,271.47,319.21,272.56,321.92Z" style="fill:#fff"></path><path d="M155.49,280.66l-46.67,43.15-1.68-.12,46.59-43.07Z" style="fill:#fff"></path><path d="M209.85,282.73,161.9,327.05l-1.71-.09,47.94-44.31Z" style="fill:#fff"></path><path d="M267.26,309.81l-21.39,19.77-1.78,0,22.62-20.91C266.89,309,267.08,309.41,267.26,309.81Z" style="fill:#fff"></path><path d="M130.92,280.34l-32.7,30.23c1.41-2.69,2.82-5.23,4.18-7.61l24.38-22.53C128,280.39,129.36,280.35,130.92,280.34Z" style="fill:#fff"></path><path d="M225,283.54l-47.82,44.22-3.86-.17,47.88-44.27Z" style="fill:#fff"></path></g><path d="M92.4,322.56a86.88,86.88,0,0,1-8,13c-.08.11-.24.33-.31.44-.17.48.35,1.52.63,2.05.39.77.86,1.52,1.32,2.29-1.16-1-3.86-3.45-2.82-5.12a71.7,71.7,0,0,1,9.21-12.62Z" style="opacity:0.1"></path><path d="M275.52,329.75a70.79,70.79,0,0,1,8.2,13.31c.9,1.75-2,4-3.22,4.88.52-.73,1.05-1.44,1.5-2.18.32-.51.92-1.5.79-2-.06-.11-.2-.34-.28-.46a88.1,88.1,0,0,1-7-13.55Z" style="opacity:0.1"></path><rect x="157.75" y="390.86" width="46.85" height="12.52" transform="translate(15.72 -6.8) rotate(2.25)" style="fill:#fff"></rect><polygon points="208.8 359.38 203.9 351.32 175.5 362.64 204.66 361.37 208.8 359.38" style="opacity:0.1"></polygon><polygon points="257.82 351.76 228.45 329.35 224.97 342.71 257.82 351.76" style="opacity:0.1"></polygon><path d="M282.79,343.76c-.35,4.21-9.67,10.41-9.67,10.41s-9,2.94-20.54,6h0c-2.58.48-5.31.93-8.17,1.33-15.58,2.18-59.69,1.53-72.79,1.39,5.19-.25,35.25-2.83,37.22-3.52S223,343.83,225,342.71c.95-.54,30,7.8,32.85,9.05.28.12,13.84-10,14.18-10.69s3.52-11.32,3.52-11.32S283,341.63,282.79,343.76Z" style="fill:#263238"></path><polygon points="272 341.07 259.4 329.77 275.52 329.75 272 341.07" style="opacity:0.1"></polygon><path d="M290.79,366.3c0,1-.31,6.78-1.12,7.22-2.24,1.23-12,3.91-18.11,4.79-28.46,4.1-69.65,5.43-89.81,4.3-20.2-.46-61.15-5-89.2-11.33-6-1.35-15.55-4.79-17.69-6.19-.76-.51-.58-6.28-.54-7.28s7.29-14.17,8.55-14.46,14.9,8.19,38.11,13.32c23.79,5.25,61.52,6.85,61.52,6.85s37.73,1.37,61.86-2c23.54-3.29,37.77-10,39-9.57S290.83,365.3,290.79,366.3Z" style="opacity:0.1"></path><path d="M289.67,373.52c-8.23,4-17.28,5.88-26.3,7.07s-18.06,2.3-27.13,3.11c-18.15,1.55-36.38,2.67-54.61,1.92-29.58-1.41-58.94-6.26-87.74-13a74.79,74.79,0,0,1-19-7.53,80.48,80.48,0,0,0,19.26,6.48c28.94,5.35,58.2,9.89,87.62,11.2,18.09.81,36.25-.21,54.33-1.28,9.05-.62,18.1-1.34,27.13-2.28a116.83,116.83,0,0,0,13.45-1.82,84,84,0,0,0,13-3.87Z" style="fill:#fff;opacity:0.5"></path><path d="M88.11,340.88c4.85.64,27.42,15.91,28.35,17.13s2.8,13.19,1.3,14.3-19-.18-24.19-1.23-16-4.43-18.38-6.41,0-15.18,2.54-17.75C81,343.62,85,340.47,88.11,340.88Z" style="fill:#fff"></path><path d="M88.11,340.88a15.76,15.76,0,0,1,3.58,1.34c3.45,1.67,6.75,3.65,10,5.62,4.91,3,9.83,6,14.49,9.43a2.93,2.93,0,0,1,1.1,1.8,36.31,36.31,0,0,1,.86,3.79,37.31,37.31,0,0,1,.72,7.76c-.1,1.48-.39,2.46-2,2.6a77.82,77.82,0,0,1-12.59-.19,90.79,90.79,0,0,1-11.5-1.44,78.9,78.9,0,0,1-16.4-5.71,6.19,6.19,0,0,1-1.68-1.19c-1.33-2.34-.7-5.25-.44-7.77.64-3.42,1.25-7.11,3.34-10,2.8-2.64,6.37-6.29,10.5-6.07Zm0,0c-3.93-.16-7.06,3-9.74,5.47a7.48,7.48,0,0,0-2,3.19A33.4,33.4,0,0,0,74.71,357a21.38,21.38,0,0,0,0,5.65,2.57,2.57,0,0,0,1.26,2.12c4.2,2.22,8.87,3.4,13.43,4.67a75.92,75.92,0,0,0,15,2.19c2.54.2,5.09.35,7.62.42a23.28,23.28,0,0,0,5.36-.23c0,.07.13-.17.17-.43a30.11,30.11,0,0,0-.32-8.35,25,25,0,0,0-1-4.57c-.06-.23-.3-.37-.5-.57-4.51-3.54-9.3-6.74-14.11-9.87a105.73,105.73,0,0,0-9.94-5.77,15.74,15.74,0,0,0-3.57-1.36Z" style="fill:#dbdbdb"></path><path d="M99.42,359.07a6.72,6.72,0,1,1-11.09-5.37,6.74,6.74,0,0,1,11.09,5.37Zm0,0a6,6,0,1,0-10.57,3.65,6,6,0,0,0,10.57-3.65Z" style="fill:#dbdbdb"></path><path d="M112.19,363.79a5.78,5.78,0,0,1-9.8,3.87,5.85,5.85,0,0,1,.33-8.5,5.78,5.78,0,0,1,9.47,4.63Zm0,0a5,5,0,1,0-5.58,4.82,5,5,0,0,0,5.58-4.82Z" style="fill:#dbdbdb"></path><path d="M85.52,352.56c-.83,2.14-2,12.63-1.69,14a7.56,7.56,0,0,0,1.29,2.21c-4.32-1.36-8.55-3-9.93-4.14-2.38-2,0-15.18,2.54-17.75,3.22-3.3,7.27-6.46,10.38-6a21.4,21.4,0,0,1,5.56,2.36S86.35,350.43,85.52,352.56Z" style="fill:#92E3A9"></path><path d="M278.37,348.35c-4.89.26-28.59,13.71-29.61,14.86s-3.83,12.93-2.42,14.15,18.92,1.31,24.22.67,16.3-3.16,18.82-4.95,1.17-15.14-1.13-17.89C285.29,351.65,281.51,348.18,278.37,348.35Z" style="fill:#fff"></path><path d="M278.37,348.35a15.63,15.63,0,0,0-3.67,1.08,102.55,102.55,0,0,0-10.36,5c-5,2.75-10.07,5.55-14.84,8.73-.22.19-.46.31-.55.53a24.92,24.92,0,0,0-1.34,4.48,30.64,30.64,0,0,0-1,8.3c0,.26.15.52.14.44a2.78,2.78,0,0,0,.66.2,88.39,88.39,0,0,0,12.29.63,76.09,76.09,0,0,0,15.16-1c4.63-.91,9.39-1.73,13.75-3.61a2.56,2.56,0,0,0,1.42-2,20.83,20.83,0,0,0,.41-5.63,33.63,33.63,0,0,0-1.08-7.54,7.41,7.41,0,0,0-1.74-3.34c-2.46-2.71-5.35-6.07-9.27-6.22Zm0,0c4.13.11,7.4,4,10,6.87,1.86,3,2.18,6.75,2.55,10.2.06,2.56.45,5.47-1.06,7.72a6.26,6.26,0,0,1-1.76,1.05,78.5,78.5,0,0,1-16.79,4.4,116,116,0,0,1-19.28.31,33.5,33.5,0,0,1-4.87-.57,3.17,3.17,0,0,1-1.13-.43,1.8,1.8,0,0,1-.62-1.26c-.23-3,.59-5.87,1.27-8.74a36.82,36.82,0,0,1,1.15-3.71,2.91,2.91,0,0,1,1.24-1.7c4.91-3,10.05-5.66,15.18-8.27,3.44-1.71,6.88-3.42,10.45-4.82a15.78,15.78,0,0,1,3.68-1Z" style="fill:#dbdbdb"></path><path d="M265.67,365.59A6,6,0,1,0,276.24,362a6,6,0,0,0-10.57,3.64Zm0,0A6.72,6.72,0,1,1,276.75,371a6.74,6.74,0,0,1-11.08-5.37Z" style="fill:#dbdbdb"></path><path d="M252.56,369.3a5.05,5.05,0,1,0,5.59-4.82,5.08,5.08,0,0,0-5.59,4.82Zm0,0a5.76,5.76,0,1,1,9.47,4.62,5.79,5.79,0,0,1-9.47-4.62Z" style="fill:#dbdbdb"></path><path d="M280,360.2c.66,2.19,1,12.75.59,14.13a7.79,7.79,0,0,1-1.46,2.1c4.41-1,8.75-2.3,10.22-3.35,2.53-1.79,1.17-15.14-1.14-17.89-2.95-3.55-6.74-7-9.87-6.84a21.34,21.34,0,0,0-5.73,1.91S279.38,358,280,360.2Z" style="fill:#92E3A9"></path><path d="M290.74,366.81l-3.34,2.65-2,3.87-2.46-2.43-2.09.82-2.93,1.16-2.9-.77-2,.61-1.9-4.34-3.31,0-.39-2.6,1.77-3.28,4.89-3.53-1.9-.86.5-3.25,2.51-1.62,2.78-1.8,3.31-1.91,3.28,3.51,2.84,1.13c.32.35.62.7.92,1.06.9,1.07,1.66,3.77,2.1,6.76l-.77,2.35,1.14,1.4C290.72,366.07,290.74,366.44,290.74,366.81Z" style="fill:#263238"></path><path d="M272.6,354.82c-1.07.06-2.15.1-3.22.12-1.12.81-3.14,1.93-4.57,2.83-2.75,1.09-5.5,2.16-8.32,3.07,2.6-1.25,5.53-2.47,8.07-3.5,1.59-.91,3.17-1.85,4.78-2.72,1.09.05,2.18.12,3.26.2Z" style="fill:#dbdbdb"></path><path d="M267.73,368.34a42.06,42.06,0,0,1-4.7-.76,49.94,49.94,0,0,1-5.86.34,52.45,52.45,0,0,1,5.85-.83c1.58.35,3.16.74,4.71,1.25Z" style="fill:#dbdbdb"></path><path d="M244.36,361.51c.1.54-6.27,12.95-7.4,14.45s-6.34,4-7.54,4.16-19.62,3.18-47.66,2.08-46.17-5.52-47.35-5.81-6.18-3.15-7.18-4.73-6.4-14.47-6.25-15,17.57,3.59,28.18,4.42c5.22.42,21.57,2,33.34,2.43s28.18.2,33.42.2C226.56,363.72,244.27,361,244.36,361.51Z" style="fill:#263238"></path><path d="M132.48,358.62c2.38.44,4.93.9,7.46,1.3l-18.11-.71c-.15-.37-.27-.72-.38-1Zm100.26,3.94c-2.4.25-5,.5-7.53.7l18.1.72c.18-.36.33-.69.47-1Zm-39.32,1.2c-3.77,0-7.54-.11-10.92-.24s-7.15-.36-10.92-.62L122.53,361l.41,1L242,366.66l.49-1Zm-69.75,0c.14.34.28.68.43,1l116.52,4.58c.17-.32.34-.65.5-1Zm1.18,2.79.45,1L239.2,372l.53-1Zm1.23,2.79c.17.37.34.71.47,1l111.18,4.36.55-1Zm1.53,2.8a10.25,10.25,0,0,0,1.19,1l106.47,4.18a10.73,10.73,0,0,0,1.27-.95Zm4,2.9a20.94,20.94,0,0,0,2,1.07l96.5,3.79a21,21,0,0,0,2.13-.91Zm11.93,3.21c2.38.42,5.19.87,8.39,1.32l59.73,2.35c3.24-.2,6.07-.43,8.48-.67Z" style="fill:#455a64"></path><polygon points="286.86 394.31 283.43 388.99 273.67 388.71 265.66 387.72 251.39 392.04 245.36 391.98 251.39 392.81 265.66 389.71 273.78 391.38 280.27 391.38 287.55 398.56 286.86 394.31" style="fill:#37474f"></polygon></g><g id="freepik--car-2--inject-5"><path d="M365.12,333.21c-13.37-10.75-33.41-26.79-36.33-28.92-1.65.26-7.58,2.49-10.2,3.46-3.75,1.41-3.75,1.41-4.34,1.22-.88-.29-8.29-8.61-9.94-10.48-1.21-.26-5.5-.84-9.31-1.29l.35-3c10.35,1.23,10.54,1.47,11,2,.35.42,6.78,7.51,8.76,9.57l2.43-.89c10.7-4,11.58-4,12.53-3.42,1.82,1.12,33.34,26.46,36.93,29.34ZM304,298.12l.09.11Z" style="fill:#92E3A9"></path><path d="M671.09,399.65l-93.48.45s10-43.72,46.53-43.9S669.43,389.9,671.09,399.65Z" style="fill:#92E3A9"></path><path d="M671.09,399.65l-93.48.45s10-43.72,46.53-43.9S669.43,389.9,671.09,399.65Z" style="opacity:0.2"></path><path d="M399.82,405.66l-93.47.45s10-43.72,46.53-43.89S398.17,395.92,399.82,405.66Z" style="fill:#92E3A9"></path><path d="M399.82,405.66l-93.47.45s10-43.72,46.53-43.89S398.17,395.92,399.82,405.66Z" style="opacity:0.2"></path><path d="M692.08,319.89c2,3.17,5.71,38.23,5.92,39.45s3.15,6.59,3.2,7.61.85,16.82.45,17.84a44.35,44.35,0,0,1-3.2,5.39c-.51.62-13.7,12.08-15.18,12.24s-15.19.33-15.44.08-2.05-42.44-43.63-42.24-40.9,45-41.66,45.15-186.85,5.3-186.85,5.3c0-6.85-.76-47.66-41.55-47.47-26.57.13-38.89,22.11-39.27,38.26-.16,6.73,1,14.11.63,14.11-1.23,0-5.42.34-6.13,0s.56-5.83-.16-6-5.73-.28-7-.58S292.16,399.26,292,399s4.9-21.41,4.89-22.38c0-.38-.54-12.81-.38-14.13.19-1.61,3.59-2.74,4.17-4.35,3.11-8.55,5.65-18.65,7.92-19.22.78-.19,7.22,4,8.12,3.5,1.34-.79,2.8-3.58,5.15-5.68.13-.11,3.87,0,4-.16s2.42-6.18,2.92-6.14c1.54.11,6.05,3.29,7,3.21s3.49-5.14,3.57-5.16c1.52-.37,3.21-.4,4.88-.8,4-.95,17.07,2.86,19.06,2.7,3.44-.27,15.27-8.55,15.84-9,1.53-1.08,73.34-42.73,85.85-45.82,10.12-2.51,127.35.31,133.49.58s23.13,3.27,24.76,3.26,20.46-.2,21.59.31,0,5-1.41,5.83S688.58,314.38,692.08,319.89Z" style="fill:#92E3A9"></path><path d="M385.51,379.91s185.48-5.12,186.54-3.54-184.26,11.14-184.26,11.14Z" style="fill:#fff;opacity:0.2"></path><path d="M692.08,319.89s-83.16,9.2-86.88,9.14-201.42,7.34-205,7.14-36.88-5.82-36.88-5.82c3.44-.26,15.27-8.55,15.84-9,1.54-1.09,73.34-42.74,85.85-45.83,10.12-2.51,127.35.3,133.49.59s23.13,3.26,24.76,3.25,20.46-.2,21.59.31,0,5-1.41,5.83S688.57,314.38,692.08,319.89Z" style="fill:#fff;opacity:0.2"></path><path d="M346.37,337.39c0,.37-3.83-.06-4.16-.06s-6.41-3.72-6.41-3.72c.81-.08,3.49-5.15,3.57-5.16S346.37,337,346.37,337.39Z" style="opacity:0.1"></path><path d="M325.84,343.84c-.17.5-3.78.16-3.94.2s-5.18-1.66-5.18-1.66c1.34-.78,2.8-3.57,5.15-5.68C321.87,336.7,326,343.34,325.84,343.84Z" style="opacity:0.1"></path><path d="M328.8,330.4l-.31,6.65-2.61-.52C326,336.44,328.29,330.39,328.8,330.4Z" style="opacity:0.1"></path><path d="M689.38,317.24c-.44.41-7.77.63-8.54.33s-47.08-30.8-47.11-31.69c0-.45,8.65-.37,9.7-.33S690.22,316.47,689.38,317.24Z" style="fill:#455a64"></path><path d="M638,317c-2,5.92-235.65,15.86-237,13-1-2.12,11.89-17.36,22-23.09s39-22.28,53.28-24,43.2-1.75,68.42-1.4c25,.34,54.47.81,64.92,5.21C618.75,290.55,639.53,312.3,638,317Z" style="fill:#263238"></path><path d="M631.19,313.59c-.6,2.22-54.12,8.24-116.85,11.45s-93.73,3.83-94.5,3.52,2.07-17,3.14-18.42,45.91-24.62,53-25.26,45.18-.91,64.44-.7,59.38,2.33,66.22,5.06C612.62,291.63,631.79,311.36,631.19,313.59Z" style="fill:#37474f"></path><g style="opacity:0.1"><path d="M548,284.34,584.1,320.1c6.41-.59,12.33-1.18,17.66-1.75l-33.49-33.17C561.17,284.79,554.09,284.5,548,284.34Z" style="fill:#fff"></path><path d="M420,325l3.64,3.6c3.65,0,10-.16,19-.45l-18.78-18.6a3.93,3.93,0,0,0-.8.57C422.22,311.13,420.55,320,420,325Z" style="fill:#fff"></path><path d="M521.17,284.12l38.4,38c3.07-.23,6.07-.46,9-.71l-37.69-37.33Z" style="fill:#fff"></path><path d="M439.21,301.26l26.32,26.06,9.31-.4L445.65,298C443.44,299.11,441.27,300.2,439.21,301.26Z" style="fill:#fff"></path><path d="M574.71,285.55l32.48,32.18h0l2.46-.29-32-31.71Z" style="fill:#fff"></path><path d="M433.65,304.14l23.72,23.5,2.66-.1L435.46,303.2Z" style="fill:#fff"></path><path d="M467.49,287.76l38.09,37.72,2.64-.12L469.45,287Z" style="fill:#fff"></path><path d="M600.38,287.89l27.18,26.92q1.37-.29,2.22-.54l-26.07-25.81C602.75,288.26,601.63,288.07,600.38,287.89Z" style="fill:#fff"></path></g><path d="M597.47,287.49c-.25,0-.36.33-.14.92,1.28,3.48,11.18,23.14,13.66,27.73a2.13,2.13,0,0,0,1.39,1L595.1,319a1.41,1.41,0,0,0,.85-1.57c-.18-1.09-6.71-24.23-8.75-29.91a2.46,2.46,0,0,0-1.17-1.21c-.34,0,3,0,6.08.35C594.86,287,597.47,287.49,597.47,287.49Z" style="fill:#263238"></path><path d="M574.67,285.54s-.32.18-.33.81c-.08,5.45-.56,32.75,0,34.25.07.19.15.31.26.35l-3.27.28a1.61,1.61,0,0,0,.29-.82c.35-4.62.56-29.64.48-34.27a1.58,1.58,0,0,0-.31-.77Z" style="fill:#263238"></path><path d="M520.92,285.25c-.38,1.21-.84,36.85-.84,38s1.31,1.42,1.31,1.42l-20.25,1s1.31-.37,1.54-1,6.4-39.07,6.36-39.57-1-1-1-1l14.12-.06A2.14,2.14,0,0,0,520.92,285.25Z" style="fill:#263238"></path><path d="M688.52,324.92c2.49.31,8.11,6.1,8.53,7.32s2,9.51,1.17,10.74-3.76,4.31-6.32,4.43-15.06-5.76-16.19-6.78-2-7.24-.66-9.25S685.35,324.53,688.52,324.92Z" style="fill:#fff"></path><path d="M675.71,340.63c1.13,1,13.64,6.89,16.19,6.78,2-.09,4.14-1.91,5.42-3.31a8.3,8.3,0,0,1-5,1.6c-1.38-.12-13.09-5.09-14.6-6.46s-1.59-6.54-1.4-7.48,7.72-5.83,7.72-5.83c-3.73,1.45-8.11,4.1-9,5.45C673.74,333.39,674.58,339.61,675.71,340.63Z" style="fill:#ebebeb"></path><path d="M699.08,371.15c.69.69.94,5.88.23,6.34s-4.91.44-5.73,0-2.93-4.28-2.79-5.61S698.25,370.34,699.08,371.15Z" style="fill:#fff"></path><path d="M322.59,351.36c-.85,2.5-13.14,6.35-19.09,6.3-1.94,0-2.84-1.82-3.59-2.76l.85-2.08h.55l.58-1.39.58.12.61-2.37.8-1.32-1-1.11a6.86,6.86,0,0,1,1.27-1.52c1.17-.95,6.19-2.67,10.69-2.65C316.37,342.59,323.91,347.45,322.59,351.36Z" style="fill:#263238"></path><path d="M322.59,351.36c-.85,2.5-13.14,6.35-19.09,6.3a3.81,3.81,0,0,1-3-1.94l.62-.33,2.23-.21,5.58-.17,1.81-4.18.85,1.18,1.51-2.08-1.55-1.51,1.59-1.28-2.69-1.84-4-.25-1.16.9-.55-.79-1.67,1.35a6.6,6.6,0,0,1,1.1-1.27c1.17-.95,6.19-2.67,10.69-2.65C316.37,342.59,323.91,347.45,322.59,351.36Z" style="fill:#fff"></path><polygon points="307.03 361.25 309.67 359.2 310.14 360.66 311.18 360.84 309.61 363.23 308.12 361.65 307.03 361.25" style="fill:#fff"></polygon><polygon points="313.11 359.31 314.45 358.66 315.1 360.15 313.11 359.31" style="fill:#fff"></polygon><polygon points="301.19 358.45 300.88 358.94 301.55 358.7 301.19 358.45" style="fill:#fff"></polygon><polygon points="301.61 359.23 301.85 361.67 302.69 360.78 303.09 360.7 302.82 359.7 301.61 359.23" style="fill:#fff"></polygon><polygon points="310.63 365.33 311.34 365.98 311.81 365.51 312.68 365.36 311.39 364.23 310.63 365.33" style="fill:#fff"></polygon><path d="M319,352.13c-1.52.42-3.36.87-4.74,1.15-1,.63-2,1.25-2.95,1.86-.8,0-1.59-.08-2.38-.13.71,0,1.79-.08,2.31,0,.95-.64,1.92-1.27,2.89-1.89,1.61-.37,3.24-.68,4.87-.95Z" style="fill:#dbdbdb"></path><path d="M317.15,350.25a9.82,9.82,0,0,1-1.62,2.64,9.43,9.43,0,0,1,1.62-2.64Z" style="fill:#dbdbdb"></path><path d="M313.15,347.14c.48.23.94.48,1.4.74l-.07,0a30.09,30.09,0,0,1,3.67-.56,29,29,0,0,1-3.68.78c-.45-.3-.89-.61-1.32-.94Z" style="fill:#dbdbdb"></path><g style="opacity:0.1"><path d="M639.17,336a8.39,8.39,0,0,1,11.85-.24,8.38,8.38,0,1,1-11.79,11.91,8.37,8.37,0,0,1-.06-11.67Zm.13,11.6a8,8,0,0,0,11.36-.22,8,8,0,0,0,0-11.19,8,8,0,0,0-11.37-.12,8,8,0,0,0,.06,11.53Z"></path><path d="M670.93,366.63c.82-1.85,1.57-3.73,2.32-5.61s1.42-3.79,2.14-5.68,1.36-3.81,2-5.73,1.26-3.84,1.81-5.79c-.82,1.85-1.57,3.73-2.32,5.61s-1.42,3.79-2.14,5.68-1.36,3.81-2,5.73S671.48,364.68,670.93,366.63Z"></path><path d="M699.7,366.5c-4-.06-8.06,0-12.08,0l-12.08.18-12.07.35c-4,.15-8.05.3-12.07.54,4,.05,8.05,0,12.08,0l12.08-.18,12.07-.35C691.65,366.88,695.67,366.73,699.7,366.5Z"></path><path d="M509.41,328.23l-1.34,9.82L507.5,343c-.09.82-.17,1.65-.23,2.48s0,1.65,0,2.48l.28,19.82.2,9.9.11,5,.05,2.47.2,2.47.81,9.88.89,9.87-.55-9.89-.62-9.88-.15-2.47,0-2.48-.08-4.95-.14-9.89-.44-19.8c0-.82-.08-1.65,0-2.47s.11-1.64.18-2.46l.48-4.92Z"></path><path d="M400.64,333.26,399,343.13l-.81,4.94-.2,1.23a7.37,7.37,0,0,0-.15,1.24c0,.84,0,1.67,0,2.51.09,6.67.28,13.33.52,20,.06,1.67.14,3.33.23,5a18.7,18.7,0,0,0,1,4.92c.93,3.21,2,6.38,3.15,9.51a70.52,70.52,0,0,0,4,9.17l.62,1.1c.22.36.46.7.69,1.06a8.17,8.17,0,0,0,.77,1l.41.49a1.68,1.68,0,0,0,.73.22c1.68.16,3.34.18,5,.23,13.34.21,26.67,0,40-.13s26.67-.42,40-.73,26.66-.74,40-1.3c6.66-.3,13.32-.55,20-1.18a16.63,16.63,0,0,0,2.53-.41c.47-.19.74-.41,1.14-.58s.74-.37,1.11-.54c1.51-.69,3.07-1.3,4.57-2.06a17.61,17.61,0,0,0,4.19-2.82,39.66,39.66,0,0,0,3-4.05c3.73-5.54,7.29-11.18,10.86-16.81s7.07-11.31,10.57-17,7-11.38,10.36-17.11l1.27-2.16.3-.56.15-.29a1.65,1.65,0,0,0,0-.31l.12-1.25c.13-1.66.25-3.32.3-5,0-.42,0-.84,0-1.26a7.18,7.18,0,0,0-.27-1.22c-.24-.8-.51-1.59-.79-2.37q-.86-2.36-1.8-4.67c.61,1.55,1.21,3.11,1.76,4.68.27.79.54,1.58.77,2.38a7.25,7.25,0,0,1,.26,1.21c0,.41,0,.83,0,1.25-.07,1.66-.2,3.32-.35,5l-.12,1.24a2.87,2.87,0,0,1,0,.31l-.15.26c-.1.18-.18.36-.29.54L603.22,341c-3.46,5.7-7,11.37-10.51,17-7.06,11.31-14.09,22.65-21.52,33.72a40.71,40.71,0,0,1-3,4,17.39,17.39,0,0,1-4.09,2.73c-1.48.74-3,1.35-4.56,2-.38.18-.76.35-1.13.54s-.78.45-1.09.56a15,15,0,0,1-2.4.37c-6.63.61-13.3.84-20,1.13-13.32.52-26.65.87-40,1.18s-26.66.63-40,.84-26.67.42-40,.25c-1.67,0-3.34-.06-5-.22a4.32,4.32,0,0,1-.46-.08l-.4-.47a8.86,8.86,0,0,1-.74-1c-.23-.35-.47-.68-.68-1l-.62-1.07a71.84,71.84,0,0,1-4-9.11c-1.17-3.12-2.24-6.28-3.17-9.47a18,18,0,0,1-1-4.84l-.25-5c-.3-6.65-.55-13.32-.69-20,0-.84,0-1.67,0-2.5a8.85,8.85,0,0,1,.13-1.24l.19-1.23.77-4.94Z"></path><path d="M319,354.26a38.54,38.54,0,0,0,4.57,2.92c1.58.9,3.19,1.76,4.79,2.63s3.24,1.68,4.88,2.48,3.29,1.61,5,2.35c-1.56-.93-3.15-1.81-4.75-2.69l-4.81-2.59-4.85-2.52-2.43-1.26A24.78,24.78,0,0,1,319,354.26Z"></path><polygon points="595.71 368.78 569.74 369.59 543.76 370.5 491.82 372.34 439.89 374.4 413.92 375.44 387.96 376.58 413.93 375.78 439.9 374.86 491.85 373.03 543.78 370.96 569.75 369.92 595.71 368.78"></polygon><path d="M597.06,331.55l1,0h.25c.06,0,.07,0,.1.13a2.54,2.54,0,0,1,.09.48,13.5,13.5,0,0,1,.06,2c0,.33,0,.67-.09,1a1.58,1.58,0,0,1-.11.43s0,0,0,0h-.08l-.19,0c-.66.06-1.34.08-2,.11-2.7.1-5.41.2-8.11.26l-4.06.13-2,.05h-.83c-.05,0-.08,0,0,0a1,1,0,0,1-.11-.25,3.12,3.12,0,0,1-.09-.46,10.82,10.82,0,0,1-.1-2,7.93,7.93,0,0,1,.08-1,1.26,1.26,0,0,1,.11-.38,1.09,1.09,0,0,1,.38-.11c1.31-.23,2.67-.32,4-.46a39.81,39.81,0,0,0-4.08.13,1,1,0,0,0-.57.18,1.27,1.27,0,0,0-.24.57,8.8,8.8,0,0,0-.14,1,11,11,0,0,0,0,2.07,3.38,3.38,0,0,0,.09.54.91.91,0,0,0,.37.61.31.31,0,0,0,.2.07h.15l.28,0h2.55l4.06-.07c2.71-.12,5.41-.21,8.12-.42.68-.06,1.35-.11,2-.21a1.43,1.43,0,0,0,.3-.06.61.61,0,0,0,.17-.07.51.51,0,0,0,.13-.18,2,2,0,0,0,.12-.55,9,9,0,0,0,0-1,12.83,12.83,0,0,0-.21-2,2.34,2.34,0,0,0-.14-.5.28.28,0,0,0-.07-.13s-.13-.09-.16-.07h-.25Z"></path><path d="M497.65,334.48l1,0h.25c.06,0,.07,0,.1.13a2.4,2.4,0,0,1,.09.48,13.46,13.46,0,0,1,.06,2c0,.33,0,.66-.09,1a1.49,1.49,0,0,1-.11.43s0,0,0,0h-.08l-.19,0c-.66.06-1.34.08-2,.11-2.7.09-5.41.19-8.11.25l-4.06.14-2,0h-.83c-.05,0-.08,0,0,0a1,1,0,0,1-.11-.25,3.4,3.4,0,0,1-.09-.46,10.86,10.86,0,0,1-.1-2,7.77,7.77,0,0,1,.08-1,1.5,1.5,0,0,1,.11-.38,1.09,1.09,0,0,1,.38-.11c1.31-.24,2.67-.32,4-.46a37.14,37.14,0,0,0-4.08.12,1.13,1.13,0,0,0-.57.18,1.32,1.32,0,0,0-.24.57,9.41,9.41,0,0,0-.14,1,11.12,11.12,0,0,0,0,2.08,3.46,3.46,0,0,0,.09.53.93.93,0,0,0,.37.62.52.52,0,0,0,.2.07h3l4.06-.08c2.71-.11,5.41-.2,8.12-.41.68-.06,1.35-.11,2-.21a1.56,1.56,0,0,0,.3-.07.58.58,0,0,0,.17-.06.78.78,0,0,0,.13-.18,2.09,2.09,0,0,0,.12-.56,8.92,8.92,0,0,0,0-1,12.6,12.6,0,0,0-.21-2,3.18,3.18,0,0,0-.13-.51.75.75,0,0,0-.07-.12.21.21,0,0,0-.17-.08l-.25,0Z"></path></g><circle cx="625.93" cy="403.52" r="38.66" transform="translate(-102 560.79) rotate(-45)" style="fill:#263238"></circle><path d="M593.73,404.31a32.21,32.21,0,1,0,31.56-32.84A31.9,31.9,0,0,0,593.73,404.31Z" style="fill:#37474f"></path><circle cx="625.93" cy="403.52" r="28.23" transform="translate(-114.66 325.18) rotate(-26.77)" style="fill:#dbdbdb"></circle><circle cx="625.93" cy="403.52" r="26.03" transform="translate(-102 560.79) rotate(-45)" style="fill:#a6a6a6"></circle><path d="M621.72,397.07l8.17-.16c-2.84-3.93,6.5-18,6.5-18l-4.33-1.36c-2.76,5-4.16,6.44-6.51,6.48s-3.82-1.36-6.78-6.21l-4.26,1.52S624.4,393,621.72,397.07Z" style="fill:#dbdbdb"></path><path d="M630.58,397.39l2.69,7.73c2.86-3.92,19.15.61,19.15.61l0-4.54c-5.58-1.09-7.41-2-8.18-4.19s.12-4.05,3.82-8.37l-2.77-3.58S635.26,398.69,630.58,397.39Z" style="fill:#dbdbdb"></path><path d="M633,405.93l-6.52,4.93c4.61,1.52,5.34,18.41,5.34,18.41l4.3-1.45c-.69-5.64-.42-7.65,1.46-9.08s3.89-1.13,9.14,1.05l2.55-3.74S633.23,410.77,633,405.93Z" style="fill:#dbdbdb"></path><path d="M625.66,410.88,619,406.21c0,4.85-15.85,10.76-15.85,10.76l2.7,3.64c5.16-2.39,7.15-2.76,9.08-1.41s2.28,3.34,1.83,9l4.35,1.27S621.12,412.57,625.66,410.88Z" style="fill:#dbdbdb"></path><path d="M618.67,405.41l2.37-7.83c-4.61,1.49-15.13-11.75-15.13-11.75l-2.63,3.7c3.87,4.16,4.84,6,4.15,8.2s-2.47,3.2-8,4.53l.13,4.52S615.66,401.61,618.67,405.41Z" style="fill:#dbdbdb"></path><path d="M618.37,403.49a7.56,7.56,0,1,0,7.41-7.71A7.57,7.57,0,0,0,618.37,403.49Z" style="fill:#dbdbdb"></path><path d="M383.33,441.91H327.62c-5.12,0-1.89-2.66-.82-2.66.9,0,.88-1.74,1.5-2.32l.19-.17,27-1.37,27,1.37.13.13c.54.49.62,2.36,1.55,2.36S388.44,441.91,383.33,441.91Z" style="fill:#263238"></path><path d="M394.13,408.79a38.17,38.17,0,0,1-17.94,33.12H334.62a38.6,38.6,0,0,1-6.32-5,38,38,0,0,1-11.48-26.6,38.66,38.66,0,0,1,77.31-1.54Z" style="fill:#263238"></path><path d="M323.27,410.18a32.21,32.21,0,0,0,64.4-1.29,32.21,32.21,0,1,0-64.4,1.29Z" style="fill:#37474f"></path><circle cx="355.47" cy="409.56" r="28.23" transform="translate(-133.79 175.63) rotate(-23.49)" style="fill:#dbdbdb"></circle><circle cx="355.47" cy="409.56" r="26.03" transform="translate(-185.49 371.31) rotate(-45)" style="fill:#a6a6a6"></circle><path d="M351.26,403.12l8.17-.16c-2.84-3.93,6.5-18,6.5-18l-4.33-1.35c-2.76,5-4.16,6.43-6.52,6.48s-3.81-1.37-6.77-6.22L344,385.37S353.93,399.08,351.26,403.12Z" style="fill:#dbdbdb"></path><path d="M360.12,403.44l2.68,7.72c2.86-3.91,19.15.61,19.15.61l-.05-4.53c-5.57-1.09-7.4-2-8.17-4.2s.12-4,3.81-8.36l-2.76-3.58S364.79,404.74,360.12,403.44Z" style="fill:#dbdbdb"></path><path d="M362.56,412,356,416.91c4.61,1.51,5.34,18.4,5.34,18.4l4.3-1.45c-.69-5.64-.42-7.65,1.46-9.07s3.88-1.14,9.13,1l2.56-3.73S362.77,416.82,362.56,412Z" style="fill:#dbdbdb"></path><path d="M355.2,416.93l-6.71-4.68c0,4.85-15.85,10.77-15.85,10.77l2.7,3.63c5.15-2.39,7.15-2.75,9.08-1.41s2.28,3.35,1.83,9l4.35,1.28S350.65,418.62,355.2,416.93Z" style="fill:#dbdbdb"></path><path d="M348.21,411.45l2.37-7.82c-4.61,1.48-15.13-11.75-15.13-11.75l-2.63,3.7c3.87,4.16,4.83,5.94,4.15,8.2s-2.47,3.2-8,4.52l.13,4.53S345.2,407.66,348.21,411.45Z" style="fill:#dbdbdb"></path><path d="M347.91,409.53a7.56,7.56,0,1,0,7.41-7.7A7.57,7.57,0,0,0,347.91,409.53Z" style="fill:#dbdbdb"></path><path d="M428.65,314.1c1.42,1.4,1.35,14,.33,15s-15,2-16.19-5.8S426.44,311.91,428.65,314.1Z" style="fill:#92E3A9"></path><path d="M459.14,282.55s-40.62,19.56-70.2,39.26l-10.46.06c.35-.24.57-.41.65-.45l0,0,.25-.16.22-.14,1.7-1,.68-.4.39-.22.78-.46.48-.29,3.09-1.79c.49-.28,1-.57,1.53-.89l.61-.35,1.25-.72c.21-.12.43-.24.65-.38l1.93-1.1.21-.13c.67-.37,1.34-.76,2-1.16l.21-.11,2.82-1.62c.77-.44,1.56-.9,2.38-1.35l1.14-.65,1.34-.76,2.75-1.56,1.52-.85,5.33-3,1.8-1,3-1.66,2.58-1.43.93-.52,1.86-1,1.85-1c2.79-1.53,5.57-3,8.29-4.51l1.81-1,.91-.49c.38-.19.76-.39,1.13-.6l.64-.34,1.75-.93.87-.46,1.73-.9.84-.45c.85-.43,1.68-.87,2.49-1.29,0,0,0,0,0,0l1.6-.83c.34-.16.67-.33,1-.5l2.12-1.07c.94-.48,1.85-.92,2.74-1.36Z" style="fill:#37474f"></path><g style="opacity:0.5"><path d="M671,376.45a49.77,49.77,0,0,0-8.72-10.6,53.5,53.5,0,0,0-37.79-14.47l-3.46.18-1.72.09c-.58.07-1.15.16-1.72.24l-3.42.51c-1.13.24-2.25.54-3.37.81a42.69,42.69,0,0,0-12.65,5.5,44.49,44.49,0,0,0-10.22,9.23,61.82,61.82,0,0,0-7.2,11.71,64.73,64.73,0,0,1,7.55-11.42,44.08,44.08,0,0,1,10.25-8.92c7.72-4.87,16.91-6.88,26-7A55.94,55.94,0,0,1,638,353.69a54.45,54.45,0,0,1,24,12.49A52,52,0,0,1,671,376.45Z" style="fill:#fff"></path><path d="M400.1,377.75a49.77,49.77,0,0,0-8.72-10.6,53.5,53.5,0,0,0-37.79-14.47l-3.46.18-1.72.09c-.58.07-1.15.16-1.72.25l-3.42.5c-1.13.24-2.25.54-3.37.81a42.69,42.69,0,0,0-12.65,5.5A44.49,44.49,0,0,0,317,369.24a61.82,61.82,0,0,0-7.2,11.71,64.73,64.73,0,0,1,7.55-11.42,44.08,44.08,0,0,1,10.25-8.92c7.72-4.87,16.91-6.88,26-7A55.94,55.94,0,0,1,367.13,355a54.45,54.45,0,0,1,23.95,12.49A52,52,0,0,1,400.1,377.75Z" style="fill:#fff"></path><path d="M665.07,312.32c-6.05-4.7-12.18-9.27-18.36-13.79s-12.41-8.95-18.83-13.16c-.81-.51-1.63-1-2.47-1.5-.41-.25-.84-.48-1.29-.7a8,8,0,0,0-1.41-.52c-1.85-.54-3.71-1-5.57-1.45-3.73-.9-7.46-1.76-11.22-2.48a67,67,0,0,0-11.46-1.12c-3.83-.06-7.66,0-11.48.16,3.82,0,7.65.08,11.46.29a66.29,66.29,0,0,1,11.34,1.37c3.73.82,7.45,1.66,11.16,2.59,1.85.47,3.7.94,5.52,1.48a6.82,6.82,0,0,1,1.27.48c.41.21.82.44,1.23.68.82.47,1.62,1,2.43,1.5,6.42,4.11,12.64,8.58,18.91,13Z" style="fill:#fff"></path></g><path d="M365.41,364.39c29.66,6.63,30.25,40.17,30.28,46.32,0,0,186.08-5.14,186.85-5.3.61-.13.29-29.5,22.2-40.8-9.84,4.93-22.43,16.8-27.13,34.08-.51,1.84-27.6,4.86-73.92,6.56s-86.6,1-94.24-.08S392.64,364.14,365.41,364.39Z" style="opacity:0.1"></path><path d="M313.87,401.49c-.16,6.72,1,14.11.64,14.1-.79,0-2.78.15-4.31.16h0a2.59,2.59,0,0,1-.8-.11c-.72-.3.55-5.83-.16-6s-5.73-.28-6.95-.58S292.15,399.26,292,399c1.83.46,11.73,5.8,12.91,4.5s-.13-2.09,5-12.85,17.75-21.25,25.37-22.9A40.56,40.56,0,0,0,313.87,401.49Z" style="opacity:0.1"></path></g></svg>